<?xml version="1.0" encoding="UTF-8" standalone="no"?>
<svg
   xmlns:dc="http://purl.org/dc/elements/1.1/"
   xmlns:cc="http://creativecommons.org/ns#"
   xmlns:rdf="http://www.w3.org/1999/02/22-rdf-syntax-ns#"
   xmlns:svg="http://www.w3.org/2000/svg"
   xmlns="http://www.w3.org/2000/svg"
   xmlns:sodipodi="http://sodipodi.sourceforge.net/DTD/sodipodi-0.dtd"
   xmlns:inkscape="http://www.inkscape.org/namespaces/inkscape"
   width="64"
   height="64"
   version="1.1"
   id="svg114"
   sodipodi:docname="equipe.svg"
   inkscape:version="1.0.1 (3bc2e813f5, 2020-09-07)">
  <metadata
     id="metadata120">
    <rdf:RDF>
      <cc:Work
         rdf:about="">
        <dc:format>image/svg+xml</dc:format>
        <dc:type
           rdf:resource="http://purl.org/dc/dcmitype/StillImage" />
      </cc:Work>
    </rdf:RDF>
  </metadata>
  <defs
     id="defs118" />
  <sodipodi:namedview
     pagecolor="#ffffff"
     bordercolor="#666666"
     borderopacity="1"
     objecttolerance="10"
     gridtolerance="10"
     guidetolerance="10"
     inkscape:pageopacity="0"
     inkscape:pageshadow="2"
     inkscape:window-width="1920"
     inkscape:window-height="991"
     id="namedview116"
     showgrid="false"
     inkscape:zoom="12.8125"
     inkscape:cx="32"
     inkscape:cy="32"
     inkscape:window-x="-9"
     inkscape:window-y="-9"
     inkscape:window-maximized="1"
     inkscape:current-layer="svg114" />
  <path
     fill="#D9EAEF"
     transform="scale(0.0625 0.0625)"
     d="M281.089 913.039C280.508 912.865 280.417 912.852 279.775 912.572C267.131 907.07 253.671 896.402 242.171 888.539C162.82 834.283 107.343 758.542 74.0507 668.724C68.5997 654.018 64.5354 638.732 60.803 623.514C46.8281 566.537 43.958 516.126 50.784 457.775C52.6829 441.542 55.0064 425.315 58.8542 409.415C66.5184 377.746 78.2653 347.487 91.9145 317.943C105.378 289.244 122.045 262.16 141.599 237.209C194.239 167.574 265.707 114.456 347.563 84.1297C465.426 40.4136 595.867 45.5778 709.905 98.475C827.693 153.319 908.916 244.773 953.093 366.571C962.064 391.302 967.817 416.536 971.714 442.508C983.482 518.937 975.747 597.101 949.227 669.741C945.272 680.561 941.256 691.198 936.352 701.632C930.734 713.584 925.015 725.89 918.593 737.422C886.628 794.011 843.094 843.227 790.828 881.858C779.536 890.068 761.741 902.677 748.972 907.274C748.808 910.674 748.188 914.722 748.738 918.061C750.469 928.58 758.176 937.536 759.608 948.167C759.992 951.012 759.726 954.082 759.65 956.947C781.596 956.162 803.592 956.571 825.549 956.615L849.134 956.744C852.757 956.779 856.672 956.508 860.26 956.915C861.559 957.062 862.699 957.578 863.633 958.5C864.697 959.552 865.367 961.116 865.319 962.616C865.274 964.027 864.734 964.703 863.784 965.66C862.665 966.206 861.831 966.386 860.576 966.443C841.952 967.302 822.904 966.485 804.246 966.488L691.565 966.551L265.115 966.55L193.219 966.503C187.01 966.503 165.68 967.56 161.317 966.094C160.281 965.745 159.168 965.075 158.623 964.098C157.886 962.779 158.143 960.209 158.909 958.922C159.813 957.401 162.615 957.1 164.19 956.884C173.681 955.58 191.159 956.594 201.298 956.62C224.596 956.678 247.922 956.35 271.214 956.695C274.07 943.101 282.773 926.553 281.089 913.039Z"
     id="path4" />
  <path
     fill="#184B71"
     transform="scale(0.0625 0.0625)"
     d="M607.308 115.499C612.723 106.526 618.07 98.9519 627.876 94.4236C646.401 85.8685 671.317 88.2357 689.885 95.3082C716.485 105.44 742.805 131.529 754.39 157.317C752.573 164.739 749.976 171.891 744.759 177.666C740.241 182.666 735.692 184.892 733.185 191.529C736.774 192.915 740.173 194.38 743.032 197.047C746.708 200.477 748.668 205.05 748.799 210.063C748.955 215.016 747.089 219.819 743.631 223.368C739.14 228.006 734.411 229.031 728.264 229.166C727.234 234.4 726.072 239.633 724.423 244.711C718.019 264.428 706.103 276.809 687.908 286.092L687.982 302.481C707.544 306.318 726.145 314.013 742.702 325.116C758.102 335.362 772.299 350.593 780.872 366.939C788.049 380.623 791.476 396.078 795.081 411.003C802.483 441.648 807.598 472.861 813.735 503.779C808.647 517.24 800.549 530.035 793.511 542.562L760.938 600.479C761.78 608.696 760.298 620.249 759.895 628.791C758.982 647.475 758.205 666.166 757.567 684.861C755.658 728.434 754.011 772.018 752.625 815.611C751.155 846.154 749.937 876.71 748.972 907.274C748.808 910.674 748.188 914.722 748.738 918.061C750.469 928.58 758.176 937.536 759.608 948.167C759.992 951.012 759.726 954.082 759.65 956.947C781.596 956.162 803.592 956.571 825.549 956.615L849.134 956.744C852.757 956.779 856.672 956.508 860.26 956.915C861.559 957.062 862.699 957.578 863.633 958.5C864.697 959.552 865.367 961.116 865.319 962.616C865.274 964.027 864.734 964.703 863.784 965.66C862.665 966.206 861.831 966.386 860.576 966.443C841.952 967.302 822.904 966.485 804.246 966.488L691.565 966.551L265.115 966.55L193.219 966.503C187.01 966.503 165.68 967.56 161.317 966.094C160.281 965.745 159.168 965.075 158.623 964.098C157.886 962.779 158.143 960.209 158.909 958.922C159.813 957.401 162.615 957.1 164.19 956.884C173.681 955.58 191.159 956.594 201.298 956.62C224.596 956.678 247.922 956.35 271.214 956.695C274.07 943.101 282.773 926.553 281.089 913.039C280.427 894.624 278.911 876.242 277.86 857.848L270.885 737.274C269.303 713.861 268.008 690.429 267.001 666.984C261.648 668.996 255.932 670.065 250.323 668.368C246.033 667.07 242.565 664.229 240.615 660.171C239.179 657.184 238.682 653.632 238.496 650.345C237.869 639.221 238.425 627.74 238.437 616.578L238.28 554.567L238.428 474.282C238.451 458.926 237.633 443.141 238.644 427.825C239.365 417.625 241.401 407.561 244.701 397.882C254.921 367.199 277.038 341.907 306.085 327.687C314.625 323.506 323.929 321.143 332.365 316.882L333.062 316.524L333.063 301.261C328.111 299.112 323.323 296.633 318.337 294.529C311.889 296.706 305.573 297.766 298.747 297.448C284.942 296.806 271.273 290.777 262.035 280.403C257.455 275.259 249.633 262.118 250.539 255.159C251.229 249.858 261.938 250.407 266.091 248.6C270.308 246.767 274.225 243.716 277.74 240.797C274.658 239.528 272.277 237.682 270.389 234.908C267.611 230.823 266.806 225.81 267.718 220.991C268.749 215.54 271.556 211.832 276.098 208.82C274.682 201.804 272.376 195.022 271.55 187.879C269.758 172.395 273.289 157.28 283.164 145.013C292.142 133.86 306.807 126.566 320.915 125.022C322.799 121.44 325.074 118.731 328.438 116.437C340.578 108.16 360.551 107.467 374.49 110.182C397.176 114.6 417.282 127.178 430.172 146.44C442.043 164.179 445.102 186.871 440.942 207.61C442.758 208.985 444.567 210.353 446.076 212.076C449.586 216.086 451.315 221.032 450.753 226.356C450.056 232.968 446.559 237.322 441.641 241.387C445.076 245.031 450.776 250.369 455.76 251.49C458.388 252.081 461.175 252.121 463.842 252.54C465.601 252.817 467.89 253.299 468.828 255.021C470.196 257.534 468.926 261.323 468.049 263.805C463.469 276.774 454.415 287.898 441.83 293.785C427.66 300.414 413.244 299.303 398.889 294.065C394.776 296.818 390.538 299.031 386.013 301.03L386.002 317.736C399.463 322.263 413.731 327.692 425.768 335.254C451.487 351.41 471.127 377.571 477.903 407.348C482.67 428.295 480.799 460.436 480.708 482.736L480.848 560.342C480.897 579.875 480.816 599.408 480.605 618.939C480.573 629.147 481.217 639.753 480.433 649.915C480.152 653.554 479.361 656.906 477.33 659.99C474.547 664.179 470.222 667.1 465.297 668.118C460.132 669.169 456.034 668.126 451.712 665.27L440.951 854.096L438.435 897.791C438.006 905.275 436.902 913.488 437.615 920.943C438.336 928.476 443.238 935.827 445.728 942.934C447.275 947.346 447.745 952.374 448.524 956.977C485.695 956.811 522.962 957.565 560.115 956.717C560.423 952.558 559.482 948.143 560.61 944.099C563.19 934.849 570.368 927.164 570.946 917.156C571.389 909.485 570.558 901.433 570.297 893.74L569.275 855.269L566.694 742.345C566.17 707.041 565.434 671.74 564.484 636.445L563.836 612.32C563.732 608.667 564.056 604.122 563.271 600.598C562.141 595.534 556.515 587.863 553.811 583.219L532.194 546.109C525.383 534.421 515.018 519.598 511.986 506.476C510.862 501.61 511.184 496.298 511.8 491.383C513.978 474.002 518.952 456.546 522.952 439.491C527.238 421.217 530.813 402.474 536.99 384.719C540.62 374.283 545.179 364.145 551.191 354.851C564.978 333.539 586.98 317.121 610.856 308.659C618.278 306.029 625.963 304.403 633.639 302.725L633.334 285.057C629.2 283.327 625.264 281.157 621.593 278.587C604.891 266.663 597.736 248.101 594.451 228.587C593.556 228.599 592.661 228.59 591.766 228.559C586.996 228.377 582.142 226.136 578.96 222.565C575.513 218.643 573.871 213.455 574.432 208.264C574.968 202.818 577.532 198.481 581.643 194.978C575.743 189.292 572.272 181.729 570.601 173.783C567.786 160.152 570.49 145.961 578.122 134.321C585.103 123.804 595.089 117.905 607.308 115.499Z"
     id="path6" />
  <path
     fill="#FDFBFB"
     transform="scale(0.0625 0.0625)"
     d="M399.76 332.83C414.571 338.477 430.129 348.554 441.182 359.825C448.891 367.687 454.877 376.465 459.826 386.284C474.039 414.48 471.371 437.414 471.157 467.54C464.468 467.662 448.465 466.305 443.282 468.084C441.652 468.643 440.863 469.433 440.083 470.986C439.964 472.332 439.974 473.344 440.827 474.482C441.905 475.92 443.798 476.599 445.498 476.923C451.893 478.142 463.965 476.899 471.107 477.147C471.331 513.315 471.329 549.484 471.104 585.652L471.073 627.487C471.059 634.656 471.581 642.33 470.848 649.445C470.594 651.903 469.939 654.437 468.122 656.222C466.258 658.054 463.416 658.728 460.868 658.566C458.547 658.418 456.22 657.557 454.704 655.732C453.969 654.848 453.563 653.832 453.398 652.698C452.328 645.31 453.521 629.383 453.845 621.018C454.376 607.293 454.295 593.329 452.832 579.658C451.729 568.666 449.703 557.787 446.776 547.135C443.846 536.759 439.932 526.654 436.731 516.357C431.614 499.897 428.348 481.485 429.134 464.259C429.76 450.557 435.213 440.504 436.674 427.789C437.416 421.332 436.344 400.042 431.8 395.272C430.893 394.32 429.975 393.832 428.632 393.897C427.421 393.955 426.393 394.478 425.696 395.484C422.809 399.657 426.431 409.691 427.072 414.458C427.531 417.876 427.761 421.442 427.635 424.891C427.359 432.409 424.141 439.45 422.07 446.575C419.865 454.158 419.086 462.233 419.16 470.108C419.31 486.054 422.55 502.846 427.215 518.085C429.663 526.081 432.647 533.905 434.956 541.946C438.884 555.624 441.545 569.191 443.165 583.324C419.427 583.606 395.626 583.25 371.883 583.205L275.523 583.405C276.785 574.162 278.517 565.189 280.7 556.118C282.549 549.991 284.14 543.79 286.063 537.683C293.993 512.492 302.96 486.622 300.189 459.765C298.898 447.261 292.985 435.749 292.476 423.202C292.372 420.641 292.347 417.996 292.621 415.445C293.114 410.858 296.329 399.916 293.936 395.987C293.302 394.945 291.925 394.257 290.747 394.102C289.489 393.937 288.077 394.364 287.169 395.269C285.146 397.283 284.874 402.333 284.419 405.107C282.595 416.224 282.051 427.408 285.137 438.36C287.559 446.954 290.542 455.293 291.307 464.264C293.35 488.193 282.893 514.482 276.087 537.007C271.98 550.601 268.399 564.394 266.518 578.485C264.583 592.978 264.031 608.182 264.475 622.81C264.764 632.308 265.901 642.428 265.175 651.878C265.044 653.584 264.596 654.97 263.444 656.255C261.636 658.274 258.872 659.397 256.187 659.498C254.194 659.572 252.265 658.991 250.835 657.56C248.985 655.709 248.216 652.992 247.965 650.455C247.303 643.757 247.926 636.49 247.986 629.743L248.04 595.148L248.456 476.891C257.573 476.6 269.287 478.223 278.001 476.235C279.254 475.246 279.963 474.638 280.129 472.929C280.277 471.411 280.072 469.874 278.917 468.756C277.779 467.653 276.054 467.237 274.527 467.073C271.482 466.746 268.32 467.193 265.257 467.221C259.53 467.22 253.804 467.19 248.078 467.131C247.874 437.459 246.498 412.317 260.781 384.906C272.29 362.818 293.611 341.031 317.885 333.476C321.732 341.109 353.398 406.7 357.26 409.166C358.68 410.073 360.745 409.769 362.26 409.389C367.129 403.656 374.248 386.075 377.767 378.634L399.76 332.83Z"
     id="path8" />
  <path
     fill="#94D4E4"
     transform="scale(0.0625 0.0625)"
     d="M602.692 570.437L718.974 570.43C720.613 576.26 722.419 581.971 725.13 587.404C730.769 598.703 738.763 605.408 750.633 609.41C750.469 629.773 749.061 650.376 748.144 670.735L744.856 755.259L740.834 860.883C740.11 878.8 739.82 896.83 738.434 914.708C721.209 914.991 703.962 914.916 686.733 915.008C686.125 898.634 684.618 882.268 683.74 865.902C682.267 833.564 680.574 801.236 678.663 768.921C676.667 737.088 674.935 705.238 673.467 673.375C673.431 667.742 671.508 629.736 669.974 627.42C669.357 626.488 668.398 625.935 667.307 625.737C663.488 625.041 653.656 624.506 650.374 626.824C649.626 628.21 649.511 629.888 649.356 631.438C648.273 642.321 648.123 653.435 647.477 664.363C646.099 685.108 644.827 705.86 643.661 726.618L632.295 915.285C615.27 914.474 598.021 915.047 580.979 915.127C579.778 882.705 578.975 850.27 578.571 817.829L574.697 652.668C574.329 638.302 574.462 623.948 573.982 609.578C575.604 608.707 577.205 607.771 578.783 606.823C592.686 598.475 598.829 585.66 602.692 570.437Z"
     id="path10" />
  <path
     fill="#94D4E4"
     transform="scale(0.0625 0.0625)"
     d="M617.252 317.004C620.652 318.023 651.62 367.842 657.701 375.21C658.922 376.689 660.426 378.409 662.441 378.599C664.225 377.958 665.408 376.827 666.633 375.414C671.392 369.924 675.282 363.008 679.386 356.984C688.343 344.066 697.085 331.001 705.61 317.794C715.483 321.678 725.563 325.603 734.569 331.277C752.25 342.416 766.99 358.791 774.964 378.213C777.966 385.525 780.013 393.235 782.151 400.832C784.471 409.076 786.84 417.324 788.726 425.68C776.067 430.198 763.678 435.451 751.056 440.075C750.979 433.065 751.83 393.508 750.903 390.331C750.503 388.962 748.063 386.836 746.675 386.503C745.543 386.231 744.701 386.333 743.815 387.128C742.044 388.717 741.513 391.865 741.297 394.091C740.34 403.937 741.585 416.228 741.446 426.421C740.964 461.663 741.338 496.881 741.411 532.125C741.55 545.731 740.564 548.509 735.008 560.457L587.931 560.559C586.06 556.748 583.736 552.598 582.946 548.393C580.758 536.742 581.935 514.417 582.055 501.739C582.302 477.812 582.312 453.883 582.084 429.957C582.08 419.163 583.115 407.756 582.243 397.027C582.068 394.883 581.651 392.511 580.436 390.685C579.582 389.401 578.698 389.057 577.232 388.829C575.705 389.261 574.278 389.982 573.227 391.222C570.909 393.96 572.411 433.594 572.438 439.965C559.849 436.895 547.627 432.684 535.471 428.228C540.287 408.761 544.072 388.592 553.096 370.507C566.097 344.451 589.92 326.047 617.252 317.004Z"
     id="path12" />
  <path
     fill="#184B71"
     transform="scale(0.0625 0.0625)"
     d="M666.063 406.622L707.181 406.478C713.726 406.455 720.714 405.902 727.2 406.518C728.51 406.642 729.488 406.747 730.576 407.55C731.054 408.263 731.251 408.779 731.332 409.64C732.366 420.665 731.475 433.373 731.448 444.55C731.426 453.898 732.363 467.469 730.988 476.441C730.694 478.356 729.904 478.982 728.433 480.028L688.164 479.952C681.602 479.943 674.603 480.506 668.101 479.819C666.418 479.641 665.019 479.469 663.63 478.427C663.008 476.076 662.836 473.753 662.76 471.33C662.558 464.866 662.376 412.39 663.366 409.259C663.814 407.842 664.878 407.335 666.063 406.622Z"
     id="path14" />
  <path
     fill="#94D4E4"
     transform="scale(0.0625 0.0625)"
     d="M704.091 416.25L721.535 416.199C721.46 434.308 721.883 452.433 721.977 470.544L689.75 470.526L672.104 470.516C672.432 452.49 672.45 434.459 672.159 416.432C682.795 416.24 693.452 416.308 704.091 416.25Z"
     id="path16" />
  <path
     fill="#184B71"
     transform="scale(0.0625 0.0625)"
     d="M697.948 423.762C702.057 423.741 709.916 422.29 713.398 424.798C714.559 425.634 715.231 426.584 715.417 428.026C715.58 429.284 715.345 430.538 714.504 431.521C711.562 434.959 701.319 433.502 696.908 433.435C693.279 433.475 685.722 434.547 682.652 432.571C681.478 431.816 680.766 430.905 680.472 429.539C680.201 428.273 680.321 426.9 681.16 425.857C683.838 422.53 693.801 423.771 697.948 423.762Z"
     id="path18" />
  <path
     fill="#FDFBFB"
     transform="scale(0.0625 0.0625)"
     d="M274.896 592.805L444.118 593.003C445.282 615.414 443.295 638.284 442.042 660.662L436.032 760.159C433.466 800.465 431.895 840.846 429.586 881.172C428.871 893.663 428.622 906.264 427.561 918.722C413.48 919.354 399.191 918.854 385.087 918.83C382.904 896.301 382.483 873.498 381.271 850.898C378.406 800.155 375.825 749.397 373.529 698.625C373.463 685.188 372.534 671.652 371.981 658.222C371.642 649.977 371.91 641.283 370.887 633.133C370.664 631.35 370.295 629.901 369.561 628.263C369.085 627.812 368.659 627.498 368.004 627.351C365.335 626.754 350.184 627.216 348.261 628.521C347.572 630.072 347.315 631.537 347.159 633.219C346.173 643.86 346.35 654.873 345.974 665.565L343.521 728.75C342.443 753.259 340.706 777.75 339.695 802.256C338.1 840.93 337.054 879.866 333.986 918.447L290.99 918.543C289.607 903.497 289.36 888.216 288.417 873.117L280.735 737.076L276.18 659.877C274.83 637.591 272.708 615.112 274.896 592.805Z"
     id="path20" />
  <path
     fill="#FDFBFB"
     transform="scale(0.0625 0.0625)"
     d="M638.858 143.144C650.29 142.429 662.09 144.771 672.962 148.189C689.17 153.285 714.267 166.245 722.413 182C717.952 204.357 722.46 225.876 712.864 247.833C706.725 261.882 697.422 270.986 683.189 276.511C678.372 278.334 673.394 279.867 668.312 280.741C654.434 283.127 639.549 279.392 628.108 271.271C614.443 261.572 606.777 245.199 604.031 229.012C602.656 220.909 602.764 212.685 602.72 204.496C602.629 187.481 601.767 174.986 612.231 160.37C618.723 151.301 627.786 144.931 638.858 143.144Z"
     id="path22" />
  <path
     fill="#184B71"
     transform="scale(0.0625 0.0625)"
     d="M680.395 238.514C681.621 238.714 683.247 238.847 684.227 239.674C685.039 240.359 685.5 241.5 685.545 242.542C685.671 245.502 683.575 248.418 681.639 250.455C676.867 255.475 670.176 257.724 663.378 257.933C655.898 258.162 649.732 255.768 644.33 250.665C643.67 249.9 643.003 249.131 642.407 248.315C641.324 246.834 640.288 245.007 640.843 243.113C641.19 241.925 641.893 240.832 642.997 240.25C646.297 238.508 655.18 247.044 659.019 248.164C671.252 251.734 672.811 242.078 679.523 238.899C679.81 238.763 680.105 238.642 680.395 238.514Z"
     id="path24" />
  <path
     fill="#184B71"
     transform="scale(0.0625 0.0625)"
     d="M690.852 173.192C692.572 173.004 694.249 172.979 695.977 173.095C701.367 173.459 707.717 175.414 711.216 179.723C712.66 181.503 713.266 183.165 712.989 185.433C712.289 186.478 712.045 186.789 710.765 187.188C707.249 188.283 702.354 184.758 699.221 183.292C691.047 181.012 681.218 186.319 677.387 184.824C676.149 183.644 675.501 182.921 674.994 181.272C675.079 180.317 675.173 179.763 675.721 178.943C678.442 174.868 686.367 173.694 690.852 173.192Z"
     id="path26" />
  <path
     fill="#184B71"
     transform="scale(0.0625 0.0625)"
     d="M624.249 173.614C629.79 172.919 640.883 173.685 645.245 177.545C646.31 178.487 646.373 179.186 646.547 180.543C646.122 181.826 645.5 183.066 644.385 183.897C641.642 185.942 633.748 183.087 630.434 182.482C624.134 182.895 621.844 184.97 616.304 186.661C614.856 187.103 613.192 187.006 611.882 186.205C610.817 185.554 610.149 184.511 609.953 183.28C609.733 181.904 610.214 180.451 610.984 179.318C613.798 175.177 619.729 174.476 624.249 173.614Z"
     id="path28" />
  <path
     fill="#184B71"
     transform="scale(0.0625 0.0625)"
     d="M625.884 197.527C627.196 197.402 628.623 197.202 629.933 197.388C632.397 197.737 634.888 199.632 636.203 201.69C637.455 203.651 637.909 205.908 637.32 208.178C636.551 211.141 634.689 212.456 632.122 213.845C630.899 213.987 629.582 214.192 628.354 214.042C626.269 213.786 624.053 212.536 622.767 210.88C621.358 209.053 620.761 206.728 621.115 204.448C621.603 201.229 623.354 199.372 625.884 197.527Z"
     id="path30" />
  <path
     fill="#184B71"
     transform="scale(0.0625 0.0625)"
     d="M687.777 197.901C691.967 196.502 696.507 198.705 698.002 202.862C699.497 207.018 697.4 211.608 693.279 213.198C690.527 214.26 687.416 213.749 685.149 211.862C682.883 209.974 681.816 207.008 682.361 204.109C682.907 201.211 684.979 198.835 687.777 197.901Z"
     id="path32" />
  <path
     fill="#184B71"
     transform="scale(0.0625 0.0625)"
     d="M656.744 213.132C658.363 212.932 660.424 212.427 661.878 213.361C663.343 214.302 664.143 216.193 664.353 217.876C664.745 221.017 663.68 225.286 661.786 227.784C660.517 227.998 659.268 228.282 658.066 227.609C656.25 226.593 655.325 224.237 655.068 222.271C654.688 219.373 654.928 215.51 656.744 213.132Z"
     id="path34" />
  <path
     fill="#FDFBFB"
     transform="scale(0.0625 0.0625)"
     d="M339.372 167.479C350.102 174.141 362.712 178.836 374.669 182.825C390.747 188.19 409.334 191.729 422.081 203.747C422.693 223.417 421.983 251.99 412.045 269.277C404.461 282.47 391.775 289.276 377.52 293.096C368.323 294.805 359.068 295.733 349.722 294.777C334.124 293.182 319.82 286.686 309.895 274.281C306.184 269.655 303.374 264.374 301.61 258.711C298.244 247.917 295.668 213.721 296.975 202.3C313.916 194.799 331.806 185.424 339.372 167.479Z"
     id="path36" />
  <path
     fill="#184B71"
     transform="scale(0.0625 0.0625)"
     d="M375.124 256.257C376.789 256.413 378.329 256.457 379.523 257.836C380.321 258.757 380.672 259.926 380.662 261.124C380.633 264.786 378.253 268.344 375.78 270.86C371.673 275.038 366.14 277.546 360.243 277.409C353.084 277.243 348.157 273.658 343.43 268.701C342.371 267.248 341.208 265.57 340.712 263.829C340.138 261.819 340.136 259.522 341.086 257.65C341.741 257.194 342.051 256.804 342.886 256.771C348.255 256.561 350.868 263.698 354.737 266.555C356.855 268.119 359.256 269.027 361.898 268.474C368.024 267.194 372.036 261.168 375.124 256.257Z"
     id="path38" />
  <path
     fill="#184B71"
     transform="scale(0.0625 0.0625)"
     d="M325.813 195.13C330.821 194.729 337.416 195.418 341.477 198.682C342.564 199.556 343.005 200.367 343.205 201.751C342.915 203.157 342.393 204.381 341.271 205.33C338.69 207.512 331.85 204.457 328.573 203.945C325.805 204.377 323.862 205.075 321.285 206.203C318.629 207.364 316.971 208.129 314.172 207.065C313.638 206.505 313.124 206.169 312.934 205.39C312.543 203.785 313.106 202.302 314.012 200.989C316.756 197.014 321.326 195.813 325.813 195.13Z"
     id="path40" />
  <path
     fill="#184B71"
     transform="scale(0.0625 0.0625)"
     d="M390.904 195.187C393.837 194.881 397.392 195.397 400.235 196.211C403.028 197.012 406.049 198.804 407.459 201.434C408.108 202.644 408.407 204.032 407.942 205.358C407.636 206.232 406.785 206.916 405.922 207.204C404.17 207.787 403.154 207.514 401.547 206.683C400.098 205.933 398.669 205.341 397.139 204.779C395.076 204.5 392.867 204.092 390.786 204.328C387.68 204.681 383.288 206.589 380.331 205.99C379.608 205.463 379.086 205.084 378.742 204.213C378.158 202.735 378.214 200.695 379.098 199.356C381.325 195.984 387.241 195.624 390.904 195.187Z"
     id="path42" />
  <path
     fill="#184B71"
     transform="scale(0.0625 0.0625)"
     d="M389.716 217.512C390.628 217.54 391.471 217.573 392.355 217.823C394.64 218.467 396.642 219.816 397.732 221.972C398.761 224.009 398.804 226.433 398.062 228.57C396.967 231.724 394.893 233.272 391.954 234.591C390.76 234.534 389.527 234.507 388.388 234.109C386.227 233.355 384.49 231.831 383.567 229.725C382.546 227.35 382.602 224.65 383.721 222.32C385.039 219.527 386.906 218.507 389.716 217.512Z"
     id="path44" />
  <path
     fill="#184B71"
     transform="scale(0.0625 0.0625)"
     d="M324.873 218.026C326.208 217.97 327.615 217.86 328.942 218.037C331.123 218.327 333.091 219.725 334.286 221.543C335.53 223.416 335.884 225.742 335.255 227.9C334.358 230.985 332.322 232.724 329.59 234.184C328.443 234.321 327.47 234.409 326.333 234.145C324.087 233.624 322.138 232.253 320.958 230.264C319.732 228.236 319.384 225.796 319.995 223.506C320.754 220.69 322.389 219.343 324.873 218.026Z"
     id="path46" />
  <path
     fill="#184B71"
     transform="scale(0.0625 0.0625)"
     d="M361.74 238.724C363.817 238.32 365.85 239.6 366.384 241.647C366.918 243.695 365.77 245.805 363.761 246.468C362.343 246.935 360.782 246.576 359.711 245.536C358.64 244.496 358.235 242.946 358.662 241.515C359.088 240.084 360.274 239.008 361.74 238.724Z"
     id="path48" />
  <path
     fill="#D9EAEF"
     transform="scale(0.0625 0.0625)"
     d="M647.774 941.6C645.866 936.018 643.876 930.329 642.541 924.583C641.957 922.071 641.654 919.58 641.76 916.996C642.036 910.313 643.162 903.621 643.562 896.922L655.281 699.197L658.066 654.95C658.31 650.618 658.093 640.488 659.067 636.825C659.162 636.468 659.459 636.2 659.656 635.887L660.512 635.881C660.87 636.424 660.882 636.393 661.163 637.109C662.907 641.561 662.65 656.867 662.962 662.765L666.108 724.639L671.706 828.099L675.315 889.771C675.875 899.087 677.158 908.697 677.11 918.005C677.08 923.786 674.839 929.719 672.826 935.097C670.006 942.705 669.379 948.536 669.401 956.605C662.616 956.597 655.806 956.707 649.023 956.546C649.233 951.303 649.697 946.635 647.774 941.6Z"
     id="path50" />
  <path
     fill="#FDFBFB"
     transform="scale(0.0625 0.0625)"
     d="M647.774 941.6C651.661 941.501 667.478 936.369 672.826 935.097C670.006 942.705 669.379 948.536 669.401 956.605C662.616 956.597 655.806 956.707 649.023 956.546C649.233 951.303 649.697 946.635 647.774 941.6Z"
     id="path52" />
  <path
     fill="#D9EAEF"
     transform="scale(0.0625 0.0625)"
     d="M346.182 933.359C345.292 929.521 344.293 925.76 344.275 921.801C344.236 913.592 344.987 905.297 345.412 897.095L347.422 855.472L354.09 704.574C354.353 698.47 356.22 639.842 357.608 637.558C357.683 637.434 357.792 637.334 357.884 637.222C358.694 637.143 359.048 636.893 359.725 637.457C362.223 639.541 361.761 646.163 361.869 649.157C363.738 702.229 366.066 755.284 368.854 808.316L372.99 880.924C373.788 893.981 375.218 907.239 375.507 920.306C375.619 925.357 374.864 930.158 373.895 935.1C372.085 942.348 370.523 949.668 368.876 956.954L352.144 957.01L346.182 933.359Z"
     id="path54" />
  <path
     fill="#FDFBFB"
     transform="scale(0.0625 0.0625)"
     d="M346.182 933.359L346.377 932.376C350.526 930.675 368.404 934.681 373.895 935.1C372.085 942.348 370.523 949.668 368.876 956.954L352.144 957.01L346.182 933.359Z"
     id="path56" />
  <path
     fill="#FDFBFB"
     transform="scale(0.0625 0.0625)"
     d="M789.415 436.019L790.165 436.093C790.414 436.379 790.739 436.614 790.911 436.953C791.865 438.832 793.273 449.794 793.808 452.649L803.334 502.724C801.19 508.266 798.137 513.562 795.355 518.808C787.839 532.98 779.566 546.641 771.449 560.467C764.006 573.144 757.444 586.473 750.756 599.565C746.681 597.472 743.359 595.196 740.027 592.041C737.808 589.69 736.158 587.313 734.78 584.396C743.893 566.643 751.469 547.925 759.61 529.705C762.941 522.25 766.08 514.598 770.015 507.439C768.479 501.084 765.904 494.871 763.946 488.622C759.89 475.683 756.052 462.718 751.776 449.845C764.721 446.241 776.834 440.619 789.415 436.019Z"
     id="path58" />
  <path
     fill="#FDFBFB"
     transform="scale(0.0625 0.0625)"
     d="M533.22 438.121C545.81 441.722 558.115 446.18 570.695 449.807C567.801 460.115 564.732 470.371 561.488 480.574C558.863 488.928 556.462 497.327 552.388 505.114C558.992 519.297 565.613 533.585 571.824 547.94C576.817 559.479 581.213 571.91 587.899 582.615C586.853 584.894 585.501 586.914 584.122 588.998C581.152 592.773 577.998 595.942 573.979 598.585C561.943 577.381 549.297 556.529 537.331 535.27C532.8 527.22 527.625 519.205 523.734 510.829C522.336 507.816 520.887 504.216 520.637 500.886C519.84 490.277 530.022 450.931 533.22 438.121Z"
     id="path60" />
  <path
     fill="#E7C3BB"
     transform="scale(0.0625 0.0625)"
     d="M354.316 119.195C354.922 119.083 354.692 119.106 355.319 119.069C375.65 117.942 395.592 124.958 410.737 138.567C427.988 154.063 432.234 172.915 433.314 195.093C428.399 192.197 423.082 189.985 417.869 187.69C411.744 184.829 405.405 182.081 398.998 179.927C382.079 174.239 359.267 169.154 344.499 158.926C336.608 153.46 331.694 144.331 330.128 134.977C329.635 132.03 329.705 129.618 331.602 127.202C336.249 121.283 347.35 120.008 354.316 119.195Z"
     id="path62" />
  <path
     fill="#94D4E4"
     transform="scale(0.0625 0.0625)"
     d="M652.765 99.2087C664.744 98.8063 676.617 100.612 687.769 105.123C694.557 107.918 700.992 111.505 706.939 115.81C719.97 125.359 737.938 144.319 744.287 159.232C741.375 166.128 737.086 171.547 731.258 176.182C728.251 171.64 724.575 167.729 720.701 163.924C718.061 161.471 715.149 159.181 712.247 157.042C691.539 141.783 661.274 130.296 635.272 134.204C629.098 129.13 622.848 124.034 617.175 118.4C618.695 115.544 620.297 112.808 622.457 110.378C630.089 101.79 641.871 99.8876 652.765 99.2087Z"
     id="path64" />
  <path
     fill="#E7C3BB"
     transform="scale(0.0625 0.0625)"
     d="M319.127 135.12L319.518 135.164C321.392 137.439 321.241 142.581 322.471 145.61C324.543 150.715 327.953 155.436 330.95 160.037C330.432 162.173 329.813 164.274 328.944 166.296C323.032 180.048 304.298 188.415 291.317 193.593C288.527 194.502 285.777 195.274 282.91 195.904C282.457 194.108 281.992 192.308 281.65 190.486C279.319 178.074 281.621 164.707 288.838 154.239C295.984 143.875 306.871 137.461 319.127 135.12Z"
     id="path66" />
  <path
     fill="#FDFBFB"
     transform="scale(0.0625 0.0625)"
     d="M388.729 331.873C389.129 332.256 388.882 331.972 389.264 332.867C379.881 353.481 369.932 373.833 359.43 393.9C355.623 386.72 351.934 379.479 348.362 372.18C342.797 359.935 335.373 348.166 330.932 335.502C341.983 341.01 352.67 340.924 364.767 340.631C373.965 340.407 382.191 338.772 388.729 331.873Z"
     id="path68" />
  <path
     fill="#94D4E4"
     transform="scale(0.0625 0.0625)"
     d="M609.753 126.188C612.167 126.51 620.997 135.227 623.235 137.346C619.591 139.116 616.215 141.531 613.127 144.139C600.132 155.112 593.215 170.61 591.801 187.391L591.172 188.383L589.993 188.207C585.561 184.849 583.322 180.391 581.359 175.333C580.905 174.162 580.519 173.042 580.35 171.792C578.811 160.417 580.23 148.005 587.356 138.646C593.122 131.071 600.51 127.512 609.753 126.188Z"
     id="path70" />
  <path
     fill="#FDFBFB"
     transform="scale(0.0625 0.0625)"
     d="M677.421 289.111C677.448 289.129 677.484 289.139 677.503 289.166C678.838 291.085 678.215 304.76 678.242 307.821C683.77 309.777 689.458 311.408 695.032 313.247C676.777 317.648 664.115 320.165 645.078 316.932C639.45 315.903 633.879 314.582 628.387 312.975C633.298 311.35 638.309 310.035 643.292 308.654C643.277 302.136 643.424 295.61 643.499 289.092C655.518 291.991 665.433 292.447 677.421 289.111Z"
     id="path72" />
  <path
     fill="#E7C3BB"
     transform="scale(0.0625 0.0625)"
     d="M431.262 245.3C433.198 246.704 434.801 248.896 436.649 250.495C443.273 256.223 449.746 259.426 458.107 261.928C457.605 263.577 457.104 265.245 456.412 266.826C452.046 276.797 443.144 282.961 433.304 286.757C424.72 289.252 417.218 289.14 408.463 287.731C413.479 282.951 417.877 278.516 421.188 272.367C423.887 267.355 425.821 261.867 427.121 256.334C427.745 253.679 428.11 250.197 429.186 247.736C429.701 246.557 430.291 246.095 431.262 245.3Z"
     id="path74" />
  <path
     fill="#FDFBFB"
     transform="scale(0.0625 0.0625)"
     d="M342.534 303.675C354.527 305.228 365.32 304.791 377.242 303.286C377.293 308.22 375.694 314.257 377.311 318.948C378.367 322.009 380.715 323.007 383.439 324.308C381.307 326.846 379.184 328.535 376.204 330.007C375.721 330.124 375.593 330.164 375.035 330.245C366.918 331.423 344.34 332.914 338.005 327.665C336.72 326.601 336.132 325.605 335.915 323.972C337.353 322.137 339.945 321.735 342.123 321.046C342.822 315.406 342.396 309.371 342.534 303.675Z"
     id="path76" />
  <path
     fill="#E7C3BB"
     transform="scale(0.0625 0.0625)"
     d="M288.65 243.826C290.006 245.461 291.984 260.276 293.564 264.534C296.967 273.704 302.452 280.351 309.128 287.278C300.859 288.715 293.26 287.826 285.32 285.254C285.091 285.165 284.86 285.08 284.631 284.989C273.365 280.488 265.777 271.097 261.197 260.175C269.023 258.034 274.886 255.472 281.08 250.139C283.457 248.092 285.69 245.788 288.305 244.048C288.419 243.972 288.535 243.9 288.65 243.826Z"
     id="path78" />
  <path
     fill="#FDFBFB"
     transform="scale(0.0625 0.0625)"
     d="M688.963 324.601L689.316 325.18C679.652 337.536 671.687 351.245 662.531 363.983C658.463 358.526 654.701 352.808 650.851 347.193C645.668 339.806 640.351 332.478 635.48 324.88C653.692 328.678 670.906 330.121 688.963 324.601Z"
     id="path80" />
  <path
     fill="#94D4E4"
     transform="scale(0.0625 0.0625)"
     d="M735.426 924.755C736.749 924.679 737.919 924.617 739.231 924.883C742.709 927.556 743.623 933.795 744.936 937.837C727.16 938.225 709.34 937.971 691.559 937.965L682.324 938.065C683.78 933.707 685.159 929.324 686.46 924.916C702.782 924.957 719.105 924.903 735.426 924.755Z"
     id="path82" />
  <path
     fill="#94D4E4"
     transform="scale(0.0625 0.0625)"
     d="M579.783 925.026L632.283 925.255C633.452 928.844 636.19 933.405 635.348 937.153C633.905 938.311 632.742 937.955 630.927 937.967L574.347 938.011C576.286 933.744 577.998 929.359 579.783 925.026Z"
     id="path84" />
  <path
     fill="#FDFBFB"
     transform="scale(0.0625 0.0625)"
     d="M679.063 948.233C702.735 947.225 726.722 947.967 750.425 947.972C750.461 950.979 750.381 953.881 750.075 956.873C741.537 957.235 732.866 956.968 724.315 956.953L679.106 956.859C678.983 953.986 679.042 951.108 679.063 948.233Z"
     id="path86" />
  <path
     fill="#FDFBFB"
     transform="scale(0.0625 0.0625)"
     d="M569.382 948.513C592.876 948.386 616.444 947.971 639.934 948.411C639.72 951.169 639.563 953.934 639.379 956.694C615.921 956.946 592.449 956.656 568.988 956.715L569.382 948.513Z"
     id="path88" />
  <path
     fill="#94D4E4"
     transform="scale(0.0625 0.0625)"
     d="M289.793 927.517C304.622 927.487 319.539 927.304 334.352 928.062C335.497 930.941 338.175 936.517 337.222 939.543L335.625 939.708C319.092 939.574 302.558 939.524 286.024 939.557C287.44 935.595 288.697 931.579 289.793 927.517Z"
     id="path90" />
  <path
     fill="#94D4E4"
     transform="scale(0.0625 0.0625)"
     d="M385.24 928.024C399.812 927.849 414.386 928.012 428.95 928.514C430.324 931.232 433.826 936.728 433.686 939.726L432.625 939.96L382.882 939.899C383.426 935.849 384.231 931.984 385.24 928.024Z"
     id="path92" />
  <path
     fill="#FDFBFB"
     transform="scale(0.0625 0.0625)"
     d="M283.359 949.049C302.071 949.368 320.818 949.211 339.534 949.304C340.277 951.649 341.221 954.016 341.298 956.491L340.511 956.98C331.849 956.976 286.06 957.89 281.384 956.267C281.124 953.99 282.577 951.187 283.359 949.049Z"
     id="path94" />
  <path
     fill="#FDFBFB"
     transform="scale(0.0625 0.0625)"
     d="M381.276 949.015C399.877 948.939 418.477 949.114 437.072 949.542C437.594 951.764 438.068 953.878 438.198 956.168L437.464 956.964L379.077 956.878C379.735 954.245 380.538 951.628 381.276 949.015Z"
     id="path96" />
  <path
     fill="#FDFBFB"
     transform="scale(0.0625 0.0625)"
     d="M572.253 478.872C572.597 483.645 572.165 488.73 572.125 493.529L571.888 524.794L568.976 518.198C567.024 514.04 565.152 509.845 563.363 505.615C566.665 496.814 568.868 487.637 572.253 478.872Z"
     id="path98" />
  <path
     fill="#FDFBFB"
     transform="scale(0.0625 0.0625)"
     d="M751.241 482.433C752.937 484.065 757.279 501.551 758.412 505.43C757.15 509.734 755.194 513.912 753.488 518.059L750.99 524.809C751.305 510.686 751.389 496.559 751.241 482.433Z"
     id="path100" />
  <path
     fill="#FDFBFB"
     transform="scale(0.0625 0.0625)"
     d="M431.191 214.732C433.357 215.576 435.532 216.389 437.353 217.881C439.335 219.505 441.158 221.734 441.256 224.404C441.361 227.263 439.948 229.189 438.054 231.152C436.938 231.825 435.663 232.532 434.426 232.945C433.195 233.357 432.616 233.151 431.536 232.549C429.851 228.993 431.178 219.256 431.191 214.732Z"
     id="path102" />
  <path
     fill="#FDFBFB"
     transform="scale(0.0625 0.0625)"
     d="M286.271 214.435C287.232 216.646 288.262 229.12 287.574 231.611C287.417 231.696 287.27 231.801 287.104 231.865C285.134 232.615 282.622 231.585 280.766 230.912C279.867 230.163 279.002 229.417 278.354 228.429C277.363 226.921 276.967 224.871 277.396 223.112C278.431 218.872 282.819 216.484 286.271 214.435Z"
     id="path104" />
  <path
     fill="#FDFBFB"
     transform="scale(0.0625 0.0625)"
     d="M587.964 202.016C589.711 201.875 591.302 201.844 593.048 202.005L593.448 202.534C593.658 205.876 594.672 214.718 592.793 217.56C592.397 218.159 591.092 218.177 590.405 218.308C589.391 217.907 588.392 217.458 587.493 216.833C585.732 215.607 584.645 213.428 584.41 211.326C584.004 207.71 585.727 204.674 587.964 202.016Z"
     id="path106" />
  <path
     fill="#FDFBFB"
     transform="scale(0.0625 0.0625)"
     d="M730.016 201.193C731.713 201.33 733.027 201.564 734.487 202.495C736.482 203.758 737.874 205.782 738.338 208.097C738.996 211.427 738.023 213.694 736.199 216.409C735.314 217.119 734.134 217.895 733.061 218.274C731.927 218.673 731.334 218.523 730.334 217.963C728.302 213.841 729.85 205.952 730.016 201.193Z"
     id="path108" />
  <path
     fill="#184B71"
     transform="scale(0.0625 0.0625)"
     d="M912.294 956.764C918.685 956.676 951.88 955.334 955.371 958.002C956.5 958.864 956.976 960.557 956.99 961.922C957.007 963.566 956.421 964.645 955.305 965.833C951.063 967.861 939.709 966.671 934.545 966.596L909.641 966.619C905.243 966.617 900.453 966.979 896.115 966.366C893.985 966.065 892.365 965.54 890.647 964.251C889.907 963.002 889.627 962.335 889.503 960.842C889.761 960.011 889.952 959.332 890.64 958.737C894.586 955.326 907.003 956.763 912.294 956.764Z"
     id="path110" />
  <path
     fill="#184B71"
     transform="scale(0.0625 0.0625)"
     d="M69.2053 957.065C69.5841 957.031 69.9633 957.001 70.3429 956.977C82.1335 956.176 94.3753 956.745 106.199 956.793C113.925 956.824 122.706 956.066 130.329 957.326C131.711 957.554 132.457 958.015 133.496 958.929C134.012 959.853 134.333 960.53 134.286 961.595C134.185 963.85 133.293 964.985 131.681 966.47C118.901 966.809 106.035 966.456 93.2452 966.478C85.9717 966.491 77.7548 967.278 70.5805 966.361C69.3708 966.207 68.1942 965.862 67.3399 964.924C66.3352 963.821 66.2034 962.197 66.4534 960.792C66.8014 958.838 67.693 958.125 69.2053 957.065Z"
     id="path112" />
</svg>
