<?xml version="1.0" encoding="UTF-8" standalone="no"?>
<svg
   xmlns:dc="http://purl.org/dc/elements/1.1/"
   xmlns:cc="http://creativecommons.org/ns#"
   xmlns:rdf="http://www.w3.org/1999/02/22-rdf-syntax-ns#"
   xmlns:svg="http://www.w3.org/2000/svg"
   xmlns="http://www.w3.org/2000/svg"
   xmlns:sodipodi="http://sodipodi.sourceforge.net/DTD/sodipodi-0.dtd"
   xmlns:inkscape="http://www.inkscape.org/namespaces/inkscape"
   width="64"
   height="64"
   version="1.1"
   id="svg62"
   sodipodi:docname="pazienti.svg"
   inkscape:version="1.0.1 (3bc2e813f5, 2020-09-07)">
  <metadata
     id="metadata68">
    <rdf:RDF>
      <cc:Work
         rdf:about="">
        <dc:format>image/svg+xml</dc:format>
        <dc:type
           rdf:resource="http://purl.org/dc/dcmitype/StillImage" />
      </cc:Work>
    </rdf:RDF>
  </metadata>
  <defs
     id="defs66" />
  <sodipodi:namedview
     pagecolor="#ffffff"
     bordercolor="#666666"
     borderopacity="1"
     objecttolerance="10"
     gridtolerance="10"
     guidetolerance="10"
     inkscape:pageopacity="0"
     inkscape:pageshadow="2"
     inkscape:window-width="1920"
     inkscape:window-height="991"
     id="namedview64"
     showgrid="false"
     inkscape:zoom="12.8125"
     inkscape:cx="32"
     inkscape:cy="32"
     inkscape:window-x="-9"
     inkscape:window-y="-9"
     inkscape:window-maximized="1"
     inkscape:current-layer="svg62" />
  <path
     fill="#253C68"
     transform="scale(0.0625 0.0625)"
     d="M200.953 320.873L201.002 242.983C200.975 230.978 199.432 212.58 201.796 201.398C203.447 193.946 207.156 187.106 212.499 181.656C221.319 172.516 231.126 169.404 243.58 169.181C275.858 168.603 308.243 169.065 340.529 169.09L524.826 169.213L615.48 169.396L644.405 169.244C651.262 169.201 658.353 168.839 665.161 169.729C673.453 170.812 682.212 176.153 688.114 181.897C693.734 187.437 697.689 194.44 699.533 202.113C701.95 212.111 700.669 223.534 700.648 233.791C700.58 247.638 700.685 261.486 700.962 275.331L703.077 275.313L760.037 275.005C771.558 274.97 784.729 273.711 795.975 276.221C803.936 277.924 811.25 281.856 817.062 287.557C831.085 301.545 831.08 315.729 831.013 334.204L830.978 360.602C846.019 360.834 858.523 361.061 869.851 372.418C875.002 377.558 878.67 383.992 880.47 391.042C883.155 401.413 881.98 413.242 881.989 423.899L882.026 464.896C898.57 464.929 915.248 464.022 931.771 464.526C942.282 464.846 952.116 468.767 959.359 476.525C968.229 486.026 972.277 499.516 971.766 512.337C971.247 525.359 965.109 540.213 961.424 552.785C955.65 572.485 950.05 592.202 944.046 611.841C928.75 663.525 913.175 715.127 897.32 766.642L872.884 848.304C869.101 860.538 865.636 873.308 860.932 885.218C858.463 891.469 853.993 896.4 849.148 900.91C849.345 900.997 849.539 901.09 849.738 901.17C851.801 902.003 855.392 901.61 857.685 901.606C863.485 901.544 869.284 901.432 875.083 901.271C885.431 901.008 898.329 899.977 903.727 911.146C905.934 915.712 906.212 921.373 904.402 926.114C902.642 930.722 898.936 935.198 894.26 937.016C891.671 938.023 888.756 938.346 885.994 938.466C878.423 938.794 870.746 938.507 863.167 938.455C848.113 938.233 833.057 938.152 818.002 938.211C763.206 938.627 708.408 938.678 653.611 938.365L288.748 938.728C217.267 939.24 145.784 939.159 74.3047 938.484C70.7746 938.433 66.443 938.315 63.2089 936.803C58.691 934.692 54.7658 930.292 53.1697 925.569C51.8087 921.541 52.7159 915.93 54.6713 912.227C57.0079 907.801 61.3782 904.911 66.1057 903.553C77.1846 900.37 122.224 905.368 126.954 902.41C119.896 894.394 116.506 887.315 116.349 876.515C115.846 841.88 116.286 807.185 116.241 772.542L115.995 532.503L116.011 415.67L115.899 378.576C115.883 371.432 115.407 363.816 116.271 356.734C117.298 348.311 122.014 339.276 127.943 333.273C140.81 320.244 157.067 320.931 174.024 320.935L200.953 320.873Z"
     id="path4" />
  <path
     fill="#E7E9EC"
     transform="scale(0.0625 0.0625)"
     d="M849.148 900.91C849.345 900.997 849.539 901.09 849.738 901.17C851.801 902.003 855.392 901.61 857.685 901.606C863.485 901.544 869.284 901.432 875.083 901.271C885.431 901.008 898.329 899.977 903.727 911.146C905.934 915.712 906.212 921.373 904.402 926.114C902.642 930.722 898.936 935.198 894.26 937.016C891.671 938.023 888.756 938.346 885.994 938.466C878.423 938.794 870.746 938.507 863.167 938.455C848.113 938.233 833.057 938.152 818.002 938.211C763.206 938.627 708.408 938.678 653.611 938.365L288.748 938.728C217.267 939.24 145.784 939.159 74.3047 938.484C70.7746 938.433 66.443 938.315 63.2089 936.803C58.691 934.692 54.7658 930.292 53.1697 925.569C51.8087 921.541 52.7159 915.93 54.6713 912.227C57.0079 907.801 61.3782 904.911 66.1057 903.553C77.1846 900.37 122.224 905.368 126.954 902.41C131.817 906.557 137.378 909.767 143.724 910.957C151.026 912.326 159.757 911.492 167.223 911.477L212.788 911.382L381.811 911.497L685.119 911.422L776.563 911.418C792.636 911.457 809.247 912.38 825.269 911.316C834.517 910.702 841.771 906.144 849.148 900.91Z"
     id="path6" />
  <path
     fill="#F3F8FA"
     transform="scale(0.0625 0.0625)"
     d="M168.684 896.867C171.434 893.193 173.639 889.364 175.331 885.097C180.955 870.908 184.342 855.381 188.762 840.753L221.167 730.207C237.212 674.185 253.895 618.346 271.213 562.703C274.822 551.102 278.052 539.392 281.505 527.744C284.096 519.004 286.339 509.084 291.125 501.242C296.64 492.203 307.131 482.31 317.771 480.015C327.484 477.92 348.909 479.214 359.669 479.277L432.75 479.418L759.899 479.319L878.604 479.144L913.791 479.176C920.76 479.186 927.951 478.886 934.892 479.528C938.632 479.873 941.59 480.589 944.782 482.687C951.895 487.363 955.223 495.106 956.939 503.118C957.71 509.41 957.586 514.817 956.08 520.993C952.58 535.342 947.676 549.25 943.481 563.398L912.408 666.657C898.147 715.415 883.529 764.068 868.558 812.613C862.522 832.316 857.437 852.44 850.685 871.909C848.925 876.984 847.205 881.572 843.875 885.847C839.898 890.953 833.783 895.613 827.197 896.392C814.673 897.875 796.975 896.701 783.843 896.805L670.227 896.729L291.826 897.199L191.296 896.905L168.684 896.867Z"
     id="path8" />
  <path
     fill="#C2E1E7"
     transform="scale(0.0625 0.0625)"
     d="M168.684 896.867C171.434 893.193 173.639 889.364 175.331 885.097C180.955 870.908 184.342 855.381 188.762 840.753L221.167 730.207C237.212 674.185 253.895 618.346 271.213 562.703C274.822 551.102 278.052 539.392 281.505 527.744C284.096 519.004 286.339 509.084 291.125 501.242C296.64 492.203 307.131 482.31 317.771 480.015C327.484 477.92 348.909 479.214 359.669 479.277L432.75 479.418L759.899 479.319L878.604 479.144L913.791 479.176C920.76 479.186 927.951 478.886 934.892 479.528C938.632 479.873 941.59 480.589 944.782 482.687C951.895 487.363 955.223 495.106 956.939 503.118C951.008 500.638 946.646 494.843 939.989 493.91C934.134 493.089 927.675 493.54 921.745 493.526L885.556 493.543L761.546 494.225L444.152 494.553C440.007 500.943 434.817 520.706 431.83 528.95C422.569 554.508 412.537 579.808 403.158 605.334C379.399 669.889 355.029 734.218 330.052 798.312L304.511 863.349C300.149 874.593 296.507 886.074 291.826 897.199L191.296 896.905L168.684 896.867Z"
     id="path10" />
  <path
     fill="#A9D8DF"
     transform="scale(0.0625 0.0625)"
     d="M168.684 896.867C171.434 893.193 173.639 889.364 175.331 885.097C180.955 870.908 184.342 855.381 188.762 840.753L221.167 730.207C237.212 674.185 253.895 618.346 271.213 562.703C274.822 551.102 278.052 539.392 281.505 527.744C284.096 519.004 286.339 509.084 291.125 501.242C296.64 492.203 307.131 482.31 317.771 480.015C327.484 477.92 348.909 479.214 359.669 479.277L432.75 479.418L759.899 479.319L878.604 479.144L913.791 479.176C920.76 479.186 927.951 478.886 934.892 479.528C938.632 479.873 941.59 480.589 944.782 482.687C951.895 487.363 955.223 495.106 956.939 503.118C951.008 500.638 946.646 494.843 939.989 493.91C934.134 493.089 927.675 493.54 921.745 493.526L885.556 493.543L761.546 494.225L444.152 494.553C416.814 495.568 389.175 494.701 361.803 494.68C352.128 494.672 337.922 493.421 328.69 495.282C322.057 496.619 313.456 501.797 308.889 506.788C304.631 511.441 301.824 516.944 299.787 522.87C296.127 533.519 293.255 544.453 290.046 555.244C283.164 577.677 276.536 600.187 270.162 622.77L227.064 766.173L198 862.88C196.166 869.308 194.232 875.708 192.198 882.075C190.804 886.458 188.882 891.128 188.165 895.651C188.991 896.604 190.122 896.667 191.296 896.905L168.684 896.867Z"
     id="path12" />
  <path
     fill="#253C68"
     transform="scale(0.0625 0.0625)"
     d="M526.33 580.211C528.762 579.944 531.301 579.986 533.747 580.022C549.954 580.262 566.651 586.334 579.12 596.698C582.921 599.858 586.316 603.593 589.749 607.144C591.445 605.319 593.145 603.484 594.917 601.732C608.946 587.868 629.669 580.071 649.315 580.455C670.058 580.806 689.803 589.422 704.167 604.391C719.021 620.117 726.179 640.414 725.547 661.931C725.148 675.502 720.928 689.656 713.786 701.215C705.977 713.853 694.487 722.702 683.985 732.873C668.023 748.366 651.928 763.723 635.703 778.94C623.574 789.086 612.396 800.88 600.764 811.655C595.922 816.141 590.999 821.497 585.203 824.697C584.606 824.243 584.02 823.774 583.446 823.29C576.455 817.487 570.266 810.343 564.023 803.762L529.103 766.408L492.645 727.208C483.97 717.977 473.67 708.677 466.781 698.049C460.12 687.655 456.078 675.801 455.002 663.503C453.209 643.752 459.281 622.65 472.116 607.404C486.166 590.715 504.896 582.017 526.33 580.211Z"
     id="path14" />
  <path
     fill="#F0A3A0"
     transform="scale(0.0625 0.0625)"
     d="M518.973 596.174C534.741 592.834 550.423 595.327 564.058 604.135C567.886 606.624 571.409 609.553 574.557 612.861C577.635 616.04 585.914 629.015 590.532 627.855C595.159 626.694 602.545 615.532 606.436 611.894C625.138 594.103 653.044 590.078 676.012 601.859C690.889 609.387 702.947 623.311 708.1 639.166C713.503 655.788 711.127 674.942 703.118 690.343C695.808 704.397 668.284 727.629 655.775 739.497C639.583 755.097 623.244 770.542 606.758 785.832C599.803 792.265 592.783 798.629 585.701 804.924C559.621 778.834 535.021 751.1 510.117 723.892C500.407 713.284 486.532 700.878 478.821 689.26C473.821 681.726 471.106 673.23 469.914 664.287C467.814 648.529 472.685 630.966 482.386 618.372C491.104 607.054 504.67 598.014 518.973 596.174Z"
     id="path16" />
  <path
     fill="#EB8784"
     transform="scale(0.0625 0.0625)"
     d="M585.701 804.924C559.621 778.834 535.021 751.1 510.117 723.892C500.407 713.284 486.532 700.878 478.821 689.26C473.821 681.726 471.106 673.23 469.914 664.287C467.814 648.529 472.685 630.966 482.386 618.372C491.104 607.054 504.67 598.014 518.973 596.174C505.667 610.993 498.013 627.854 499.048 648.079C499.644 659.726 503.671 671.381 509.758 681.285C518.038 694.758 530.832 706.13 541.396 717.856L566.508 745.425C576.604 756.674 586.582 768.253 597.876 778.331C600.748 780.894 603.653 783.56 606.758 785.832C599.803 792.265 592.783 798.629 585.701 804.924Z"
     id="path18" />
  <path
     fill="#E7E9EC"
     transform="scale(0.0625 0.0625)"
     d="M876.415 627.654C877.963 627.683 879.49 627.788 880.876 628.54C883.83 630.142 884.717 633.198 885.57 636.22C883.403 646.444 879.737 656.302 876.428 666.197C872.941 676.758 869.517 687.34 866.158 697.943C857.338 726.156 848.171 754.26 838.66 782.248C836.321 789.336 834.622 796.651 832.174 803.696C831.502 805.632 830.651 807.72 829.382 809.34C827.795 811.367 825.803 811.517 823.385 811.835C821.911 811.694 820.486 811.526 819.086 811.017C816.728 810.16 814.88 808.733 814.011 806.318C812.5 802.12 832.342 744.937 835.386 735.767C840.442 720.939 845.334 706.056 850.06 691.119C853.399 680.384 865.687 637.85 870.004 631.226C871.547 628.858 873.802 628.263 876.415 627.654Z"
     id="path20" />
  <path
     fill="#E7E9EC"
     transform="scale(0.0625 0.0625)"
     d="M903.347 539.609C904.759 539.565 906.321 539.448 907.719 539.669C910.491 540.106 911.914 542.05 913.538 544.142C914.176 547.489 914.221 549.85 913.445 553.193C911.538 561.4 908.32 569.562 905.726 577.594C903.006 586.019 899.964 598.961 895.642 606.472C894.502 608.452 893.092 609.605 891.179 610.795C889.962 610.879 888.783 610.937 887.594 610.613C885.183 609.958 882.464 608.374 881.265 606.099C879.601 602.946 881.205 597.588 882.179 594.326C884.964 584.992 895.701 548.793 899.385 542.919C900.403 541.296 901.689 540.494 903.347 539.609Z"
     id="path22" />
  <path
     fill="#F3F8FA"
     transform="scale(0.0625 0.0625)"
     d="M318.126 289.08C361.67 288.38 405.298 288.899 448.847 288.934L641.11 288.919L736.973 288.834L770.014 288.734C776.72 288.728 783.602 288.406 790.266 289.17C796.446 289.878 803.192 293.595 807.647 297.893C815.622 305.586 817.271 314.44 817.368 325.127L817.367 465.407L461.903 465.39L369.453 465.108L341.129 465.115C330.253 465.119 319.525 464.412 308.948 467.441C305.992 468.406 303.13 469.639 300.398 471.125C288.115 477.899 279.107 490.785 274.283 503.71C272.565 508.313 271.504 513.116 270.142 517.831C270.952 496.539 270.449 475.1 270.415 453.79C270.345 409.792 269.91 365.723 270.411 321.731C270.521 312.094 273.165 303.961 280.229 297.19C290.845 287.015 304.615 288.843 318.126 289.08Z"
     id="path24" />
  <path
     fill="#E7E9EC"
     transform="scale(0.0625 0.0625)"
     d="M270.142 517.831C270.952 496.539 270.449 475.1 270.415 453.79C270.345 409.792 269.91 365.723 270.411 321.731C270.521 312.094 273.165 303.961 280.229 297.19C290.845 287.015 304.615 288.843 318.126 289.08C314.961 289.267 311.83 289.339 308.66 289.317C309.119 328.461 309.178 367.609 308.838 406.754C308.781 426.901 307.961 447.333 308.948 467.441C305.992 468.406 303.13 469.639 300.398 471.125C288.115 477.899 279.107 490.785 274.283 503.71C272.565 508.313 271.504 513.116 270.142 517.831Z"
     id="path26" />
  <path
     fill="#253C68"
     transform="scale(0.0625 0.0625)"
     d="M388.041 327.177C392.974 327.249 397.765 328.568 401.389 332.082C409.403 339.853 407.134 354.618 407.449 364.935C417.313 365.105 431.122 362.431 438.904 369.79C442.73 373.406 444.877 378.451 444.831 383.716C444.799 388.985 442.917 394.382 439.059 398.068C431.234 405.545 417.011 403.599 406.971 403.531C406.932 412.742 408.976 426.269 403.486 434.044C400.27 438.6 395.436 440.857 390.088 441.864C389.828 441.871 389.569 441.884 389.309 441.886C384.206 441.919 379.18 440.615 375.483 436.925C367.759 429.216 370.134 413.678 370.242 403.51C360.826 403.576 347.736 405.283 339.937 398.946C335.848 395.624 333.491 390.707 333.138 385.48C332.736 380.144 334.587 374.884 338.242 370.976C346.119 362.542 359.632 365.083 370.14 364.896C371.1 355.187 367.961 342.144 374.21 333.969C377.661 329.455 382.613 327.785 388.041 327.177Z"
     id="path28" />
  <path
     fill="#F0A3A0"
     transform="scale(0.0625 0.0625)"
     d="M386.055 335.555C387.916 335.454 389.711 335.547 391.506 336.102C406.014 340.586 394.709 363.299 399.69 371.039C403.458 376.894 421.933 372.401 428.656 374.048C431.538 374.754 434.522 376.329 436.048 378.983C437.392 381.32 437.059 384.259 436.277 386.721C435.635 388.741 434.589 391.412 432.954 392.841C426.025 398.898 407.008 392.052 400.806 396.238C396.982 398.819 399.701 419.909 398.386 425.529C397.447 429.543 395.545 431.375 392.135 433.486C389.806 434.144 387.471 434.393 385.11 433.697C372.144 429.875 382.277 405.004 377.193 396.686C376.632 395.768 375.731 395.228 374.692 394.964C367.958 393.248 356.809 396.673 348.826 394.458C346.186 393.726 343.958 392.133 342.694 389.668C341.243 386.837 340.876 382.731 342.055 379.746C346.771 367.804 367.093 376.65 375.966 372.593C376.91 372.161 377.609 371.597 377.91 370.582C380.053 363.37 376.106 349.327 379.374 341.463C380.745 338.164 382.901 336.937 386.055 335.555Z"
     id="path30" />
  <path
     fill="#253C68"
     transform="scale(0.0625 0.0625)"
     d="M546.925 350.236L690.854 350.343L739.363 350.417C745.666 350.422 752.107 349.988 758.384 350.221C759.621 350.267 760.828 350.553 761.931 351.125C763.17 351.767 764.045 352.756 764.361 354.139C764.595 355.164 764.236 356.322 763.545 357.108C762.199 358.641 760.435 358.69 758.563 358.785C709.267 358.27 659.942 358.792 610.644 358.859L568.863 358.93C561.854 358.943 554.731 359.249 547.736 358.92C546.177 358.847 544.455 358.644 543.042 357.932C541.608 357.21 541.264 356.332 540.865 354.853C541.088 353.674 541.384 352.87 542.167 351.967C543.507 350.423 545.017 350.37 546.925 350.236Z"
     id="path32" />
  <path
     fill="#253C68"
     transform="scale(0.0625 0.0625)"
     d="M544.028 409.62C561.855 408.949 579.952 409.535 597.803 409.504C609.787 409.484 624.259 408.643 636.025 409.505C637.485 409.612 638.317 409.932 639.489 410.793C640.273 411.991 640.62 412.791 640.358 414.26C640.069 415.882 639.327 416.553 638.144 417.532L574.246 417.576C565.055 417.598 554.167 418.641 545.152 417.512C543.85 417.349 543.153 417.021 542.18 416.098C541.574 414.796 541.334 413.928 541.715 412.491C542.114 410.987 542.83 410.437 544.028 409.62Z"
     id="path34" />
  <path
     fill="#253C68"
     transform="scale(0.0625 0.0625)"
     d="M680.15 409.592C696.034 408.987 712.163 409.5 728.076 409.451C738.514 409.419 749.798 408.536 760.145 409.507C761.535 409.638 762.285 410.057 763.369 410.908C763.957 412.034 764.199 412.41 764.085 413.721C763.931 415.507 762.799 416.482 761.531 417.556L706.848 417.535C698.489 417.558 689.194 418.406 680.93 417.405C679.631 417.248 678.945 416.909 677.962 416.004C677.573 415.095 677.327 414.493 677.458 413.472C677.716 411.479 678.594 410.625 680.15 409.592Z"
     id="path36" />
  <path
     fill="#F3F8FA"
     transform="scale(0.0625 0.0625)"
     d="M265.736 183.331C351.797 182.04 437.962 183.208 524.038 183.005L616.214 183.025L643.348 183.008C649.135 183.002 655.098 182.73 660.854 183.381C667.328 184.113 672.782 186.79 677.455 191.283C684.543 198.098 686.978 206.985 687.085 216.58C687.251 231.516 686.941 246.462 687.015 261.4L686.904 275.389L314.853 275.35L314.835 263.289C322.417 262.891 328.984 264.157 336.108 260.883C339.93 257.572 342.241 253.841 342.507 248.674C342.706 244.829 341.712 240.584 339.101 237.651C336.12 234.305 331.861 233.325 327.545 233.181C323.292 233.039 319.027 233.365 314.783 233.012C314.69 225.188 316.284 216.045 309.997 210.125C306.774 207.13 302.455 205.601 298.066 205.902C294.109 206.16 290.352 207.865 287.81 210.951C283.148 216.612 283.984 225.415 283.95 232.338C276.769 232.061 267.734 230.398 261.887 235.557C258.61 238.45 256.794 242.805 256.7 247.144C256.599 251.515 258.292 255.736 261.384 258.827C267.576 264.979 276.2 263.024 284.028 263.404C284.099 267.039 285.253 275.289 283.137 278.253L281.13 279.347C277.777 274.453 273.282 270.482 270.084 265.506C266.503 264.987 262.866 265.08 259.305 264.356C256.347 263.755 253.171 262.424 251.505 259.76C249.983 257.326 249.388 254.008 249.094 251.17C248.483 245.271 249.053 239.16 249.177 233.236C249.37 223.979 248.702 214.08 250.67 204.981C252.057 198.573 260.498 186.882 265.736 183.331Z"
     id="path38" />
  <path
     fill="#E7E9EC"
     transform="scale(0.0625 0.0625)"
     d="M336.108 260.883C338.36 262.25 341.297 261.964 343.853 261.977L687.015 261.4L686.904 275.389L314.853 275.35L314.835 263.289C322.417 262.891 328.984 264.157 336.108 260.883Z"
     id="path40" />
  <path
     fill="#253C68"
     transform="scale(0.0625 0.0625)"
     d="M425.587 238.084C442.266 237.748 459.031 238.135 475.719 238.179L555.008 238.094L607.753 238.009C616.814 237.979 626.268 237.335 635.291 237.97C636.815 238.078 637.678 238.411 638.817 239.468C639.431 240.822 639.538 241.562 639.149 243.025C638.749 244.53 637.886 245.206 636.616 245.978L491.315 245.966L446.315 246.065C439.896 246.1 433.193 246.772 426.816 246.324C425.061 246.201 424.168 245.817 422.962 244.475C422.555 243.387 422.416 242.637 422.718 241.483C423.181 239.716 424.135 238.973 425.587 238.084Z"
     id="path42" />
  <path
     fill="#89B5EA"
     transform="scale(0.0625 0.0625)"
     d="M158.664 335.2C172.7 334.725 186.814 334.976 200.861 334.953C199.987 372.941 200.647 411.061 200.653 449.062L197.413 449.063C186.21 449.105 176.96 450.131 168.696 458.579C164.134 463.242 160.566 469.949 159.733 476.459C159.004 482.147 159.255 488.133 159.219 493.867L159.15 522.743L159.211 617.232L159.262 878.625C159.2 880.058 159.051 881.374 158.593 882.744C157.251 886.758 154.468 890.002 150.606 891.778C147.154 893.399 143.195 893.56 139.623 892.226C135.607 890.7 132.961 887.548 131.341 883.663C130.465 881.564 130.513 879.216 130.495 876.981L130.422 547.83L130.448 427C130.436 405.34 129.78 383.447 130.575 361.81C130.678 359.011 130.79 356.321 131.856 353.698C133.154 350.506 134.682 347.528 136.946 344.893C142.607 338.307 150.287 335.779 158.664 335.2Z"
     id="path44" />
  <path
     fill="#E7E9EC"
     transform="scale(0.0625 0.0625)"
     d="M215.09 698.498C216.136 684.655 215.309 670.356 215.139 656.476C214.774 605.651 214.678 554.825 214.852 504L214.655 356.285L214.536 256.142L214.535 226.52C214.529 220.335 214.195 213.946 214.844 207.796C215.512 201.472 218.128 195.669 222.678 191.174C233.616 180.369 251.646 183.262 265.736 183.331C260.498 186.882 252.057 198.573 250.67 204.981C248.702 214.08 249.37 223.979 249.177 233.236C249.053 239.16 248.483 245.271 249.094 251.17C249.388 254.008 249.983 257.326 251.505 259.76C253.171 262.424 256.347 263.755 259.305 264.356C262.866 265.08 266.503 264.987 270.084 265.506C273.282 270.482 277.777 274.453 281.13 279.347C270.157 286.269 262.074 293.97 258.244 306.707C254.675 318.575 256.39 346.621 256.365 360.066L256.417 501.184L256.393 538.984C256.394 545.03 256.912 551.53 256.239 557.522C255.538 563.759 253.106 570.022 251.27 576.008C248.027 586.576 244.655 597.113 241.532 607.717L225.368 663.241C222.043 674.967 219.127 687.003 215.09 698.498Z"
     id="path46" />
  <path
     fill="#E7E9EC"
     transform="scale(0.0625 0.0625)"
     d="M190.622 463.105C193.953 462.85 197.309 462.982 200.646 463.025C201.762 484.897 201.025 507.155 201.061 529.059L201.006 655.159L201.108 717.165C201.12 726.913 202.095 737.997 200.633 747.61C199.016 758.234 194.248 769.026 191.139 779.327C185.93 796.588 181.415 814.113 176.354 831.431C175.593 834.62 174.741 837.787 173.8 840.927C172.781 818.76 173.429 796.413 173.459 774.224L173.495 661.451L173.538 543.815C173.555 523.862 172.786 503.536 173.723 483.62C173.918 479.485 174.506 475.432 176.69 471.823C179.857 466.588 184.905 464.376 190.622 463.105Z"
     id="path48" />
  <path
     fill="#89B5EA"
     transform="scale(0.0625 0.0625)"
     d="M831.146 374.567C833.237 374.547 835.328 374.539 837.419 374.543C845.966 374.575 854.476 375.906 860.689 382.431C864.076 385.988 866.109 390.658 867.009 395.447C868.792 404.931 867.86 415.692 867.902 425.38C867.959 438.577 868.4 451.892 867.897 465.073L831.156 465.124L831.146 374.567Z"
     id="path50" />
  <path
     fill="#F0A3A0"
     transform="scale(0.0625 0.0625)"
     d="M297.637 213.405C298.219 213.413 298.798 213.422 299.378 213.469C313.031 214.573 302.65 233.793 307.784 238.952C311.093 242.277 321.049 240.225 325.562 240.386C328.171 240.478 331.082 240.766 332.893 242.891C334.434 244.699 334.697 247.396 334.496 249.671C333.462 261.428 314.34 252.208 308.256 257.176C305.718 261.39 306.906 270.073 306.983 275.033L300.311 275.015C297.257 275 294.207 275.175 291.157 275.312C291.061 271.334 292.483 260.457 290.16 257.517C286.813 253.28 277.718 255.881 272.938 255.17C270.06 254.742 266.856 253.51 265.111 251.061C264.203 249.787 263.905 248.316 264.273 246.797C267.522 233.388 283.219 244.428 289.664 239.354C294.484 235.558 290.511 225.687 291.854 220.242C292.723 216.72 294.653 215.224 297.637 213.405Z"
     id="path52" />
  <path
     fill="#E7E9EC"
     transform="scale(0.0625 0.0625)"
     d="M150.756 103.523C152.006 103.613 153.211 103.743 154.394 104.186C160.753 106.562 160.133 114.117 162.863 119.089C166.146 125.07 175.735 122.054 181.298 123.797C183.219 124.399 184.802 125.518 185.683 127.367C186.625 129.346 186.82 132.245 186.065 134.311C184.15 139.555 175.784 139.63 171.372 141.635C162.051 145.873 168.222 155.337 165.518 162.402C164.449 165.196 162.157 166.515 159.586 167.744C156.33 167.033 154.09 165.737 151.501 163.656C150.119 160.505 149.334 157.118 148.157 153.889C144.506 143.868 134.66 149.258 127.585 145.587C125.74 144.63 124.538 142.974 123.922 141.015C123.712 140.335 123.559 139.639 123.466 138.934C123.228 137.145 123.49 135.442 124.54 133.941C128.418 128.402 137.788 129.779 141.52 123.923C144.576 119.127 141.977 112.791 144.593 107.853C145.94 105.311 148.136 104.36 150.756 103.523Z"
     id="path54" />
  <path
     fill="#E7E9EC"
     transform="scale(0.0625 0.0625)"
     d="M108.423 209.979C120.445 209.175 130.836 218.281 131.617 230.304C132.398 242.327 123.273 252.701 111.249 253.46C99.2561 254.217 88.9149 245.121 88.1357 233.129C87.3566 221.138 96.4336 210.78 108.423 209.979Z"
     id="path56" />
  <path
     fill="#E7E9EC"
     transform="scale(0.0625 0.0625)"
     d="M888.981 203.904C897.591 203.552 897.098 213.05 901.458 218.145C904.762 222.006 910.757 221.904 914.601 225.116C916.209 226.46 916.855 228.109 916.917 230.178C917.069 235.322 906.517 236.543 903.26 238.705C898.11 242.125 897.92 249.674 893.622 254.209C892.771 254.386 891.863 254.596 890.992 254.599C889.764 254.602 888.502 253.825 887.619 253.022C884.004 249.733 883.923 243.857 880.38 240.498C876.78 237.083 870.6 236.949 867.393 233.277C866.094 231.789 865.709 229.967 865.959 228.033C866.681 222.454 876.299 222.316 879.714 218.994C883.624 215.19 883.478 208.631 887.407 205.147C887.602 204.975 887.802 204.809 888.004 204.645C888.322 204.388 888.652 204.147 888.981 203.904Z"
     id="path58" />
  <path
     fill="#E7E9EC"
     transform="scale(0.0625 0.0625)"
     d="M818.951 140.448C820.055 140.448 820.836 140.413 821.888 140.804C824.667 141.836 824.028 146.868 826.192 149.031C828.361 151.2 832.498 151.218 834.695 153.626C835.226 154.207 835.418 154.4 835.703 155.126C836.174 156.323 835.843 157.259 835.409 158.376C833.037 160.513 830.253 160.358 827.246 160.535C825.696 164.567 824.89 169.519 821.764 172.665C820.412 172.175 818.946 171.637 817.796 170.752C815.219 168.768 815.177 164.872 814.815 161.927C811.047 161.371 807.074 161.098 804.38 158.122C803.998 157.171 803.764 156.565 803.968 155.511C804.794 151.252 810.656 152.522 813.639 150.889C815.438 148.28 814.935 146.301 815.858 143.514C816.4 141.878 817.559 141.264 818.951 140.448Z"
     id="path60" />
</svg>
