<?xml version="1.0" encoding="UTF-8"?>
<svg version="1.1" xmlns="http://www.w3.org/2000/svg" width="64" height="64">
<path d="M0 0 C1.17443161 -0.00855011 1.17443161 -0.00855011 2.37258911 -0.01727295 C4.02848971 -0.02671345 5.68440901 -0.03325316 7.34033203 -0.03710938 C9.86654616 -0.04681252 12.39194558 -0.07784282 14.91796875 -0.109375 C16.52864101 -0.11590575 18.13931908 -0.12115594 19.75 -0.125 C20.8783577 -0.1435202 20.8783577 -0.1435202 22.0295105 -0.16241455 C26.54447098 -0.1433487 29.43926195 0.38232584 33.0078125 3.203125 C35.15829372 6.42884684 35.26558902 7.3317238 35.29833984 11.05419922 C35.31109955 12.03887177 35.32385925 13.02354431 35.33700562 14.03805542 C35.33923126 15.10057526 35.34145691 16.16309509 35.34375 17.2578125 C35.3504068 18.35151154 35.3570636 19.44521057 35.36392212 20.572052 C35.37405289 22.88704749 35.37873901 25.20207221 35.37841797 27.51708984 C35.38278699 31.05745664 35.41909232 34.59657294 35.45703125 38.13671875 C35.46290011 40.3854124 35.46686904 42.63411198 35.46875 44.8828125 C35.48312103 45.94128387 35.49749207 46.99975525 35.51229858 48.09030151 C35.48583442 52.35233124 35.3434445 55.46251035 33.57104492 59.37353516 C29.68299049 62.14875946 26.203561 61.88300607 21.53515625 61.796875 C20.15596764 61.79693542 20.15596764 61.79693542 18.74891663 61.79699707 C16.80804598 61.79164218 14.86717588 61.7740607 12.92651367 61.74511719 C9.95229033 61.70322329 6.98032828 61.70405159 4.00585938 61.7109375 C2.1197759 61.7004463 0.23370411 61.68750857 -1.65234375 61.671875 C-2.54301041 61.67167358 -3.43367706 61.67147217 -4.35133362 61.67126465 C-5.17906784 61.65535278 -6.00680206 61.63944092 -6.85961914 61.62304688 C-7.58701797 61.61462769 -8.31441681 61.6062085 -9.06385803 61.59753418 C-11.5816163 61.0825667 -12.47957101 60.25974574 -13.9921875 58.203125 C-14.1796875 54.515625 -14.1796875 54.515625 -13.9921875 51.203125 C-15.6421875 51.203125 -17.2921875 51.203125 -18.9921875 51.203125 C-18.6621875 49.883125 -18.3321875 48.563125 -17.9921875 47.203125 C-16.6721875 47.203125 -15.3521875 47.203125 -13.9921875 47.203125 C-13.9921875 44.563125 -13.9921875 41.923125 -13.9921875 39.203125 C-15.6421875 39.203125 -17.2921875 39.203125 -18.9921875 39.203125 C-18.9921875 37.883125 -18.9921875 36.563125 -18.9921875 35.203125 C-17.3421875 35.203125 -15.6921875 35.203125 -13.9921875 35.203125 C-13.9921875 32.563125 -13.9921875 29.923125 -13.9921875 27.203125 C-15.6421875 26.873125 -17.2921875 26.543125 -18.9921875 26.203125 C-18.9921875 25.213125 -18.9921875 24.223125 -18.9921875 23.203125 C-17.3421875 23.203125 -15.6921875 23.203125 -13.9921875 23.203125 C-13.9921875 20.563125 -13.9921875 17.923125 -13.9921875 15.203125 C-15.6421875 14.873125 -17.2921875 14.543125 -18.9921875 14.203125 C-18.9921875 13.213125 -18.9921875 12.223125 -18.9921875 11.203125 C-17.3421875 11.203125 -15.6921875 11.203125 -13.9921875 11.203125 C-14.0540625 10.11 -14.1159375 9.016875 -14.1796875 7.890625 C-13.9921875 4.203125 -13.9921875 4.203125 -12.6796875 2.328125 C-8.73177878 -0.30381415 -4.55310382 0.02558571 0 0 Z M-9.9921875 6.203125 C-10.15906198 8.78666718 -10.15906198 8.78666718 -9.9921875 11.203125 C-8.6721875 11.203125 -7.3521875 11.203125 -5.9921875 11.203125 C-6.3221875 12.193125 -6.6521875 13.183125 -6.9921875 14.203125 C-7.9821875 14.533125 -8.9721875 14.863125 -9.9921875 15.203125 C-9.9921875 17.843125 -9.9921875 20.483125 -9.9921875 23.203125 C-8.6721875 23.203125 -7.3521875 23.203125 -5.9921875 23.203125 C-5.9921875 24.523125 -5.9921875 25.843125 -5.9921875 27.203125 C-7.3121875 27.203125 -8.6321875 27.203125 -9.9921875 27.203125 C-9.9921875 29.843125 -9.9921875 32.483125 -9.9921875 35.203125 C-8.6721875 35.203125 -7.3521875 35.203125 -5.9921875 35.203125 C-5.9921875 36.523125 -5.9921875 37.843125 -5.9921875 39.203125 C-7.3121875 39.203125 -8.6321875 39.203125 -9.9921875 39.203125 C-9.9921875 41.843125 -9.9921875 44.483125 -9.9921875 47.203125 C-9.0021875 47.533125 -8.0121875 47.863125 -6.9921875 48.203125 C-6.6621875 49.193125 -6.3321875 50.183125 -5.9921875 51.203125 C-7.3121875 51.203125 -8.6321875 51.203125 -9.9921875 51.203125 C-10.24249727 53.61932323 -10.24249727 53.61932323 -9.9921875 56.203125 C-6.29224192 58.66975539 -3.43137453 58.50917636 0.8515625 58.50390625 C1.61706421 58.50819138 2.38256592 58.5124765 3.17126465 58.51689148 C4.78848278 58.52263017 6.40572673 58.52313842 8.02294922 58.51879883 C10.49881903 58.51563649 12.97349647 58.53911031 15.44921875 58.56445312 C17.02083182 58.56672592 18.59244812 58.56742971 20.1640625 58.56640625 C21.27509338 58.58022087 21.27509338 58.58022087 22.40856934 58.59431458 C26.29574351 58.61631848 26.29574351 58.61631848 29.70266724 56.97355652 C31.39014375 54.68449208 31.38792746 53.33344342 31.39599609 50.50390625 C31.40545258 49.55281982 31.41490906 48.6017334 31.4246521 47.62182617 C31.41857941 46.59677979 31.41250671 45.5717334 31.40625 44.515625 C31.41055527 42.93454956 31.41055527 42.93454956 31.41494751 41.3215332 C31.41698963 39.09227969 31.41144948 36.86300833 31.39892578 34.63378906 C31.38287481 31.21639032 31.39877009 27.80017435 31.41796875 24.3828125 C31.41598635 22.21874738 31.41214273 20.054683 31.40625 17.890625 C31.41232269 16.86557861 31.41839539 15.84053223 31.4246521 14.78442383 C31.41519562 13.8333374 31.40573914 12.88225098 31.39599609 11.90234375 C31.39241592 10.64683716 31.39241592 10.64683716 31.38876343 9.3659668 C30.91512243 6.67687887 30.20624932 5.79172059 28.0078125 4.203125 C25.23171497 3.91709374 22.68471723 3.80647158 19.91015625 3.83984375 C19.12008682 3.83934525 18.3300174 3.83884674 17.51600647 3.83833313 C15.84747805 3.84067192 14.17894599 3.85038906 12.51049805 3.86694336 C9.95134086 3.89056935 7.39322313 3.88749908 4.83398438 3.88085938 C3.21353543 3.88643508 1.59309089 3.89354429 -0.02734375 3.90234375 C-0.79506607 3.90143234 -1.56278839 3.90052094 -2.35377502 3.89958191 C-6.63555828 3.80609157 -6.63555828 3.80609157 -9.9921875 6.203125 Z " fill="#000000" transform="translate(23.9921875,0.796875)"/>
<path d="M0 0 C2.70567626 1.82339052 4.53728718 3.07457436 6 6 C6.04022391 8.3329866 6.04320247 10.66706666 6 13 C2.52085059 13.02887814 -0.95826831 13.04675687 -4.4375 13.0625 C-5.92733398 13.07506836 -5.92733398 13.07506836 -7.44726562 13.08789062 C-8.39150391 13.09111328 -9.33574219 13.09433594 -10.30859375 13.09765625 C-11.18314209 13.10289307 -12.05769043 13.10812988 -12.95874023 13.11352539 C-15 13 -15 13 -16 12 C-15.83293475 7.65630342 -15.426148 5.51586337 -12.625 2.125 C-8.23920419 -1.42540613 -5.37486431 -1.20471097 0 0 Z M-9.75 5.4375 C-12.10996686 7.556887 -12.10996686 7.556887 -12 9 C-7.38 9 -2.76 9 2 9 C0.35143175 4.87596527 0.35143175 4.87596527 -3 3 C-7.11356307 2.55779499 -7.11356307 2.55779499 -9.75 5.4375 Z " fill="#000000" transform="translate(39,34)"/>
<path d="M0 0 C2.58094937 2.82291337 3.01389559 4.30522028 2.9375 8.125 C2 11 2 11 0.3125 12.875 C-2.73610685 14.35810604 -4.64742924 14.48891657 -8 14 C-10.375 12.4375 -10.375 12.4375 -12 10 C-12.5625 6.5 -12.5625 6.5 -12 3 C-8.35161233 -1.42228808 -5.36004496 -1.68742156 0 0 Z M-8 4 C-8 5.65 -8 7.3 -8 9 C-5.525 9.495 -5.525 9.495 -3 10 C-2.34 8.68 -1.68 7.36 -1 6 C-1.66 5.01 -2.32 4.02 -3 3 C-5.9254644 2.7763932 -5.9254644 2.7763932 -8 4 Z " fill="#000000" transform="translate(39,18)"/>
</svg>
