<?xml version="1.0" encoding="UTF-8" standalone="no"?>
<svg
   xmlns:dc="http://purl.org/dc/elements/1.1/"
   xmlns:cc="http://creativecommons.org/ns#"
   xmlns:rdf="http://www.w3.org/1999/02/22-rdf-syntax-ns#"
   xmlns:svg="http://www.w3.org/2000/svg"
   xmlns="http://www.w3.org/2000/svg"
   xmlns:sodipodi="http://sodipodi.sourceforge.net/DTD/sodipodi-0.dtd"
   xmlns:inkscape="http://www.inkscape.org/namespaces/inkscape"
   width="64"
   height="64"
   version="1.1"
   id="svg94"
   sodipodi:docname="certo--ecco-il-prompt-riscritto-utilizzando-l-idea.svg"
   inkscape:version="1.0.1 (3bc2e813f5, 2020-09-07)">
  <metadata
     id="metadata100">
    <rdf:RDF>
      <cc:Work
         rdf:about="">
        <dc:format>image/svg+xml</dc:format>
        <dc:type
           rdf:resource="http://purl.org/dc/dcmitype/StillImage" />
      </cc:Work>
    </rdf:RDF>
  </metadata>
  <defs
     id="defs98" />
  <sodipodi:namedview
     pagecolor="#ffffff"
     bordercolor="#666666"
     borderopacity="1"
     objecttolerance="10"
     gridtolerance="10"
     guidetolerance="10"
     inkscape:pageopacity="0"
     inkscape:pageshadow="2"
     inkscape:window-width="1920"
     inkscape:window-height="991"
     id="namedview96"
     showgrid="false"
     inkscape:zoom="12.8125"
     inkscape:cx="32"
     inkscape:cy="32"
     inkscape:window-x="-9"
     inkscape:window-y="-9"
     inkscape:window-maximized="1"
     inkscape:current-layer="svg94" />
  <path
     fill="#2D5487"
     transform="scale(0.0625 0.0625)"
     d="M482.261 120.215C534.74 117.602 587.219 125.368 636.692 143.069C737.176 178.881 819.278 253.211 864.874 349.651C898.464 421.72 910.059 502.093 898.208 580.718C893.781 608.452 886.216 634.435 876.878 660.858C878.205 666.797 879.551 672.787 880.167 678.848C880.912 686.173 880.662 693.641 880.65 700.995L880.618 733.583C880.819 759.042 880.796 784.503 880.55 809.962C886.283 813.232 891.761 816.931 896.936 821.027C928.411 845.959 950.564 883.854 955.134 923.955C955.824 930.016 957.293 938.412 953.235 943.536C950.258 944.52 947.231 944.721 944.116 944.785C915.636 945.362 887.052 944.842 858.561 944.735L732.751 944.61L665.627 944.718C656.024 944.757 641.713 945.756 632.673 944.45C630.582 944.148 629.681 944.086 628.471 942.217C625.242 937.233 628.184 927.113 629.125 921.574L270.25 920.524L40.935 920.466C40.2946 920.001 39.6768 919.531 39.0911 918.998C37.5861 917.627 36.0393 915.477 36.1985 913.315C36.3088 911.818 36.8425 910.66 37.9125 909.63C39.6668 907.943 42.2899 907.251 44.6501 907.035C47.5425 906.769 50.6035 907.15 53.5177 907.155L75.6876 907.071L152.559 907.058L394.714 907.395C382.121 902.379 368.864 899.023 356.216 893.976C310.576 876.005 268.572 849.91 232.241 816.955C153.208 745.039 105.83 644.781 100.445 538.061C94.5945 433.636 133.763 329.485 203.317 251.901C275.092 172.665 375.47 125.278 482.261 120.215Z"
     id="path4" />
  <path
     fill="#F7FAFB"
     transform="scale(0.0625 0.0625)"
     d="M205.898 683.882C202.459 678.737 199.691 672.707 196.931 667.16C178.686 630.499 167.706 588.579 164.598 547.785C156.985 458.815 185.431 370.516 243.547 302.721C303.133 233.299 382.833 189.592 474.651 182.772C541.338 177.564 608.076 192.192 666.472 224.816C675.148 229.758 685.459 234.807 692.994 241.296C705.582 248.621 717.399 259.391 728.125 269.184C778.682 315.344 811.896 370.781 829.406 436.923C840.53 478.941 842.851 525.566 837.193 568.611C835.637 580.445 833.108 592.048 830.55 603.695C804.696 593.265 781.742 590.397 755.414 601.683C734.835 610.307 718.575 626.826 710.279 647.539C707.334 654.932 705.186 662.884 704.248 670.792C702.487 685.634 703.549 701.417 703.535 716.379L703.533 793.48C689.016 805.113 673.616 814.03 656.979 822.323C596.825 852.231 529.348 864.237 462.569 856.915C375.939 847.687 296.431 804.707 241.261 737.281C227.758 720.474 216.279 702.755 205.898 683.882Z"
     id="path6" />
  <path
     fill="#ABE0EF"
     transform="scale(0.0625 0.0625)"
     d="M205.898 683.882C202.459 678.737 199.691 672.707 196.931 667.16C178.686 630.499 167.706 588.579 164.598 547.785C156.985 458.815 185.431 370.516 243.547 302.721C303.133 233.299 382.833 189.592 474.651 182.772C541.338 177.564 608.076 192.192 666.472 224.816C675.148 229.758 685.459 234.807 692.994 241.296C692.708 241.277 692.422 241.266 692.137 241.237C689.188 240.934 673.308 231.126 669.387 229.135C664.727 226.768 659.867 224.982 655.059 222.954C645.207 218.798 635.74 214.846 625.558 211.548C601.166 203.649 576.998 197.67 551.46 194.648C539.009 193.174 526.274 192.91 513.748 192.908C460.774 192.898 408.473 203.892 361.043 227.969C342.976 237.141 324.414 249.444 308.094 261.466C237.919 313.62 190.961 391.183 177.277 477.539C170.465 523.224 170.789 570.91 182.637 615.762C185.54 626.755 190.377 640.635 194.234 651.386C196.566 657.884 206.369 678.373 205.898 683.882Z"
     id="path8" />
  <path
     fill="#2D5487"
     transform="scale(0.0625 0.0625)"
     d="M498.883 315.539C499.51 315.45 500.121 315.368 500.754 315.335C503.725 315.18 506.874 315.959 509.086 318.049C510.921 319.782 511.56 321.978 511.88 324.412C512.635 330.135 512.319 336.233 512.343 342.007L512.345 372.437C512.269 407.962 511.736 443.557 512.046 479.074C514.777 480.055 517.508 481.044 520.138 482.275C532.942 488.271 538.836 497.735 543.415 510.575C563.615 510.421 583.815 510.383 604.016 510.46C612.881 510.488 622.702 509.666 631.458 510.772C633.774 511.064 635.711 511.88 637.481 513.427C639.484 515.178 641.065 517.655 641.21 520.37C641.346 522.912 640.425 525.883 638.694 527.773C636.92 529.71 634.255 530.59 631.712 530.883C622.58 531.936 612.527 531.059 603.266 531.03C583.277 530.903 563.288 530.879 543.299 530.957C541.8 536.486 539.68 541.432 536.322 546.102C529.757 555.231 520.193 561.228 509.077 562.997C497.829 564.756 486.345 561.946 477.18 555.192C467.954 548.438 460.881 538.278 459.189 526.831C457.311 514.133 461.295 503.952 468.737 493.891C462.642 486.351 450.917 476.478 443.458 469.661C419.143 446.567 394.226 423.944 369.488 401.295C361.901 394.349 354.571 387.143 347.017 380.174C342.079 375.618 336.425 371.204 332.062 366.129C330.358 364.147 328.714 361.64 328.54 358.952C328.372 356.37 329.506 353.812 331.317 352.008C333.443 349.925 336.347 348.833 339.319 348.999C341.638 349.143 342.999 349.965 344.781 351.408C354.262 359.085 362.963 368.261 371.945 376.562L425.594 426.012L464.254 461.731C471.236 468.169 478.571 474.391 485.072 481.317L492.11 479.13C492.487 465.882 492.087 452.528 492.091 439.267L492.243 361.19C492.263 352.75 491.083 329.321 493.016 322.285C493.931 318.952 496.021 317.257 498.883 315.539Z"
     id="path10" />
  <path
     fill="#F7FAFB"
     transform="scale(0.0625 0.0625)"
     d="M498.558 497.999C511.026 496.124 522.674 504.652 524.651 517.105C526.629 529.557 518.195 541.275 505.76 543.354C493.179 545.458 481.295 536.905 479.294 524.307C477.294 511.709 485.944 499.896 498.558 497.999Z"
     id="path12" />
  <path
     fill="#2D5487"
     transform="scale(0.0625 0.0625)"
     d="M641.463 749.536C646.173 755.206 650.353 763.922 654.121 770.442C659.188 779.209 664.508 787.811 669.621 796.546C665.135 799.653 660.398 802.495 655.799 805.438C652.753 804.234 631.411 765.061 627.775 758.651C632.571 755.918 637.192 753.046 641.463 749.536Z"
     id="path14" />
  <path
     fill="#2D5487"
     transform="scale(0.0625 0.0625)"
     d="M771.643 514.491L822.948 514.509C822.974 518.074 823.788 529.591 822.398 532.209C805.592 532.168 788.785 532.249 771.98 532.452C771.707 526.469 771.594 520.48 771.643 514.491Z"
     id="path16" />
  <path
     fill="#2D5487"
     transform="scale(0.0625 0.0625)"
     d="M655.375 238.675C659.808 240.909 664.193 244.233 668.384 246.941C665.028 254.678 660.438 262.065 656.226 269.372C651.409 277.734 646.666 286.138 641.998 294.584C637.206 292.099 632.769 289.11 628.354 286.025C636.441 269.807 646.081 254.229 655.375 238.675Z"
     id="path18" />
  <path
     fill="#2D5487"
     transform="scale(0.0625 0.0625)"
     d="M775.433 357.28C777.449 359.047 781.925 368.866 783.5 371.774C768.003 379.757 753.37 389.674 738.181 398.26L737.302 398.197C734.299 394.092 732.201 389.035 730.136 384.404C736.571 379.466 744.267 375.628 751.27 371.518C759.324 366.791 767.209 361.703 775.433 357.28Z"
     id="path20" />
  <path
     fill="#2D5487"
     transform="scale(0.0625 0.0625)"
     d="M349.755 238.436C352.401 239.42 375.067 279.988 377.991 284.998C373.581 287.857 369.128 290.649 364.633 293.374C361.633 289.381 358.461 282.384 355.772 277.869C349.373 267.125 341.724 256.452 336.276 245.215C340.714 242.855 345.255 240.674 349.755 238.436Z"
     id="path22" />
  <path
     fill="#2D5487"
     transform="scale(0.0625 0.0625)"
     d="M266.816 648.959L274.819 662.759C259.96 671.945 244.619 681.162 228.863 688.715L228.798 688.706C226.944 687.696 222.498 677.594 221.162 674.978C226.865 670.934 233.298 667.642 239.389 664.225C248.504 659.087 257.646 653.998 266.816 648.959Z"
     id="path24" />
  <path
     fill="#2D5487"
     transform="scale(0.0625 0.0625)"
     d="M501.143 789.768L510.719 789.542C510.52 807.147 510.487 824.753 510.62 842.358L503.944 842.162L494.673 841.993L494.496 789.978L501.143 789.768Z"
     id="path26" />
  <path
     fill="#2D5487"
     transform="scale(0.0625 0.0625)"
     d="M363.424 751.784C367.856 754.51 372.513 756.854 376.959 759.568C373.888 765.837 369.877 771.821 366.277 777.807L350.232 804.593L336.366 796.37C344.832 781.433 354.39 766.418 363.424 751.784Z"
     id="path28" />
  <path
     fill="#2D5487"
     transform="scale(0.0625 0.0625)"
     d="M181.825 516.176L232.885 516.171C232.95 521.56 232.928 526.95 232.82 532.338C215.762 532.511 198.704 532.558 181.645 532.48C181.583 527.045 181.643 521.609 181.825 516.176Z"
     id="path30" />
  <path
     fill="#2D5487"
     transform="scale(0.0625 0.0625)"
     d="M228.185 356.621C243.557 364.228 257.947 373.98 273.128 381.987C270.695 386.672 267.83 391.019 265.636 395.855C250.692 388.024 236.474 378.412 220.878 371.954C223.494 366.906 225.902 361.828 228.185 356.621Z"
     id="path32" />
  <path
     fill="#2D5487"
     transform="scale(0.0625 0.0625)"
     d="M495.047 201.083L511.002 201.198L511.09 252.537C505.727 252.505 500.364 252.436 495.002 252.33L495.047 201.083Z"
     id="path34" />
  <path
     fill="#F3D0CF"
     transform="scale(0.0625 0.0625)"
     d="M488.03 133.718C534.801 131.245 587.02 139.626 631.089 155.335C727.747 189.074 806.925 260.024 851.026 352.416C889.051 430.967 899.278 520.102 880.03 605.223C877.13 617.808 874.027 630.473 869.687 642.649C862.338 629.544 853.048 620.129 841.731 610.491C858.41 552.46 857.364 488.115 841.625 429.972C817.424 339.728 758.636 262.655 678.002 215.456C596.547 168.315 499.654 155.607 408.798 180.151C319.248 205.068 243.087 264.197 196.752 344.777C155.676 415.89 140.909 499.182 155.033 580.082C157.381 593.903 160.849 607.608 164.549 621.123C171.266 644.102 180.762 666.011 191.914 687.154C233.619 766.218 308.094 830.333 393.891 856.675C466.348 878.98 543.97 878.038 615.864 853.98C638.993 846.01 660.956 835.264 682.555 823.853C672.936 834.212 662.894 845.398 655.17 857.221C650.428 864.479 646.528 872.23 642.529 879.909C633.328 883.813 623.534 886.901 613.99 889.844C582.565 899.533 551.148 905.33 518.25 906.88C449.803 910.109 381.752 894.825 321.261 862.635C294.479 848.964 269.59 831.865 247.222 811.769C239.411 804.635 231.424 797.437 224.09 789.815C169.858 734.274 133.612 663.687 120.075 587.25C116.669 569.217 114.514 550.969 113.624 532.639C110.128 431.797 146.549 333.645 214.981 259.493C235.512 237.122 257.979 217.903 282.976 200.683C292.02 194.453 301.172 188.124 310.686 182.639C364.377 151.684 426.438 136.373 488.03 133.718Z"
     id="path36" />
  <path
     fill="#F7FAFB"
     transform="scale(0.0625 0.0625)"
     d="M718.793 814.941C721.073 817.638 723.617 825.749 725.163 829.372C728.928 838.192 751.169 891.949 753.742 894.412C754.62 895.253 755.53 895.618 756.744 895.652C758.334 895.697 759.716 895.113 761.02 894.249C765.496 891.283 769.519 886.874 773.403 883.152L792.736 864.516C799.409 869.66 821.71 893.845 826.578 895.523C827.931 895.99 829.376 895.877 830.678 895.304C832.269 894.604 832.991 893.498 833.788 892.021C838.393 883.48 841.771 873.568 845.534 864.583L866.107 815.938C877.196 821.425 887.897 829.452 897.095 837.703C923.188 861.109 940.739 896.391 942.653 931.535C925.126 931.82 907.598 931.967 890.07 931.977L890.137 910.625C890.176 903.785 891.617 883.26 888.754 878.125C887.881 876.56 886.494 875.315 884.672 875.029C882.638 874.71 879.789 875.723 878.414 877.264C875.832 880.155 877.015 925.067 877.017 931.906L707.816 931.638C707.682 924.596 708.954 887.022 706.657 883.961C705.632 882.595 704.211 881.613 702.491 881.433C700.644 881.241 698.555 881.792 697.18 883.067C696.029 884.134 695.431 885.534 695.183 887.064C694.383 892.004 694.88 897.565 694.889 902.586L694.966 931.786C676.774 931.58 658.513 932.118 640.342 931.699C640.772 927.959 641.346 924.237 642.063 920.541C649.079 886.055 667.551 854.954 694.479 832.295C702.131 825.86 710.464 820.443 718.793 814.941Z"
     id="path38" />
  <path
     fill="#F3D0CF"
     transform="scale(0.0625 0.0625)"
     d="M783.264 607.694C785.469 607.477 787.683 607.356 789.899 607.332C810.388 607.145 830.021 615.818 844.526 630.136C855.246 640.718 862.517 655.142 865.788 669.774C869.733 687.419 867.67 709.554 867.63 727.803L868.037 801.443C857.287 796.721 846.02 791.001 834.552 788.379C834.134 784.276 833.934 780.205 833.807 776.084C840.244 769.731 846.286 763.234 850.161 754.954C852.483 749.904 854.006 744.524 854.674 739.006C855.39 733.521 855.887 689.953 854.423 686.98C852.294 682.655 839.846 684.869 835.176 683.009C828.856 680.492 823.032 671.383 820.723 665.187C819.461 661.8 818.787 658.175 817.279 654.882C816.378 652.913 814.899 650.587 812.669 649.977C811.416 649.634 810.357 649.973 809.243 650.546C805.508 652.469 804.22 656.595 803.017 660.266C801.613 664.677 798.31 668.968 795.065 672.205C790.498 676.827 784.862 680.252 778.656 682.175C767.997 685.364 753.302 683.92 742.143 683.606C738.691 683.509 735.058 683.164 731.625 683.556C730.361 683.701 728.941 683.975 728.009 684.918C726.991 685.95 726.603 687.671 726.435 689.069C726.071 692.111 726.465 695.266 726.426 698.327C726.323 706.673 725.983 715.024 726.466 723.366C727.876 747.712 737.146 763.688 754.964 779.672C753.795 782.147 752.563 784.59 751.81 787.23C739.561 790.896 728.323 796.656 717.011 802.494C716.135 783.986 716.984 765.131 716.873 746.577C716.754 731.252 716.75 715.926 716.86 700.601C716.887 688.791 716.165 676.498 718.525 664.864C720.85 653.695 725.799 643.239 732.963 634.36C745.328 619.042 763.858 609.802 783.264 607.694Z"
     id="path40" />
  <path
     fill="#F7FAFB"
     transform="scale(0.0625 0.0625)"
     d="M809.802 673.87C811.391 675.462 812.59 678.001 813.999 679.823C822.163 690.381 829.193 695.651 842.547 697.406C842.773 710.883 844.567 731.455 840.803 743.947C836.836 757.114 826.66 767.563 814.706 773.959C801.683 780.928 789.797 781.502 775.872 777.236C769.101 774.857 763.295 770.881 758.24 765.819C738.151 745.702 738.629 722.952 738.654 696.495C750.998 696.555 764.816 697.81 776.964 695.633C790.051 693.288 802.32 684.714 809.802 673.87Z"
     id="path42" />
  <path
     fill="#2D5487"
     transform="scale(0.0625 0.0625)"
     d="M778.742 745.516C784.893 745.543 784.538 752.793 790.831 753.74C795.981 754.515 799.292 749.567 802.983 746.93C804.191 746.067 805.129 745.816 806.618 745.998C807.787 746.734 808.627 747.611 808.976 748.987C809.61 751.492 808.067 753.82 806.847 755.871C806.224 756.575 805.591 757.277 804.903 757.917C801.336 761.236 796.385 762.85 791.548 762.629C786.667 762.38 782.091 760.181 778.847 756.526C777.29 754.804 775.4 751.967 775.802 749.494C776.141 747.408 777.097 746.613 778.742 745.516Z"
     id="path44" />
  <path
     fill="#2D5487"
     transform="scale(0.0625 0.0625)"
     d="M815.37 705.949C816.086 705.962 816.808 705.962 817.519 706.054C820.411 706.43 821.755 708.3 823.415 710.475C823.627 713.407 824.256 716.995 823.264 719.814C822.416 722.223 820.56 723.067 818.385 724.041C817.624 724.042 816.895 724.011 816.146 723.864C814.152 723.476 812.52 722.712 811.407 720.945C809.991 718.698 809.788 715.771 810.393 713.232C811.188 709.893 812.51 707.8 815.37 705.949Z"
     id="path46" />
  <path
     fill="#2D5487"
     transform="scale(0.0625 0.0625)"
     d="M767.94 706.101C768.936 706.228 769.94 706.308 770.848 706.784C772.544 707.672 773.78 709.462 774.419 711.223C775.517 714.247 775.309 717.812 773.784 720.658C772.662 722.751 771.269 723.45 769.081 724.177C768.266 723.967 767.46 723.754 766.674 723.45C764.424 722.579 762.941 720.985 762.04 718.755C761.031 716.26 760.97 713.521 762.131 711.064C763.395 708.392 765.204 707.038 767.94 706.101Z"
     id="path48" />
  <path
     fill="#ABE0EF"
     transform="scale(0.0625 0.0625)"
     d="M749.865 800.509C751.364 801.908 752.498 814.863 753.664 818.135C755.439 823.113 758.352 827.859 761.647 831.964C768.248 840.186 776.782 845.757 787.4 846.9C797.952 848.036 808.126 845.315 816.376 838.568C827.61 829.38 833.314 815.236 834.679 801.074C841.891 803.457 849.007 806.118 856.013 809.052C853.731 816.08 850.381 822.959 847.484 829.768C843.08 840.08 838.804 850.447 834.658 860.865C831.784 867.351 829.548 874.097 826.574 880.558C820.236 874.981 799.44 852.786 793.208 851.69C787.467 850.681 766.545 874.688 760.154 879.338C759.973 879.471 759.788 879.598 759.604 879.729C756.019 871.051 752.769 862.228 749.012 853.623C742.65 839.051 735.607 824.422 730.035 809.533C736.389 806.083 743.212 803.321 749.865 800.509Z"
     id="path50" />
  <path
     fill="#F7FAFB"
     transform="scale(0.0625 0.0625)"
     d="M821.281 784.508C822.609 786.898 821.406 800.983 820.989 804.386C819.795 814.123 816.199 823.582 808.14 829.662C802.213 834.132 794.523 835.854 787.223 834.677C778.995 833.35 773.386 828.376 768.794 821.79C768.116 820.646 767.477 819.48 766.877 818.293C761.251 806.926 761.021 796.871 764.972 785.003C768.152 786.748 771.364 788.445 774.793 789.656C790.366 795.154 806.786 791.337 821.281 784.508Z"
     id="path52" />
  <path
     fill="#ABE0EF"
     transform="scale(0.0625 0.0625)"
     d="M634.509 897.095C635.282 899.295 632.529 906.294 631.786 908.765C622.228 909.068 612.661 909.032 603.105 908.655L602.273 908.172C604.919 905.651 629.531 898.711 634.509 897.095Z"
     id="path54" />
  <path
     fill="#2D5487"
     transform="scale(0.0625 0.0625)"
     d="M132.998 95.1112C133.92 94.9922 134.826 94.9013 135.756 94.8751C139.656 94.7656 143.437 95.7738 146.272 98.5803C152.951 105.192 150.779 120.557 150.834 129.46C158.88 129.454 174.185 127.617 180.288 133.056C182.899 135.383 184.347 138.805 184.47 142.274C184.61 146.534 183.024 150.669 180.072 153.743C173.427 160.675 159.48 158.551 150.518 158.675C150.43 166.416 152.493 178.27 148.789 185.153C146.576 189.265 143.061 191.159 138.742 192.491C134.419 192.665 130.11 192.221 126.793 189.134C120.201 183 122.466 167.403 122.34 158.905C112.92 158.327 99.6593 161.527 92.2599 154.381C89.3927 151.632 87.7834 147.825 87.8102 143.853C87.802 140.061 89.2643 136.324 92.054 133.717C98.4157 127.774 114.174 129.904 122.581 129.982C122.826 122.735 121.552 109.125 124.196 102.844C126.006 98.5441 128.924 96.8335 132.998 95.1112Z"
     id="path56" />
  <path
     fill="#F3D0CF"
     transform="scale(0.0625 0.0625)"
     d="M134.452 101.486C136.038 101.532 137.73 101.503 139.244 102.03C149.807 105.708 141.131 127.277 144.987 135.204C149.305 138.799 166.416 135.065 172.959 136.83C174.866 137.344 176.58 138.329 177.516 140.139C178.517 142.074 178.574 144.943 177.903 146.991C174.759 156.583 153.192 148.901 145.832 152.723C142.965 155.628 144.355 175.379 143.908 180.658C142.299 183.447 140.846 184.814 137.957 186.269C137.608 186.272 137.259 186.261 136.911 186.238C133.375 186.007 132.123 184.526 129.86 181.993C128.097 173.168 130.708 160.532 128.169 153.264C123.998 149.28 105.541 153.501 98.302 150.667C96.6172 150.008 95.058 148.887 94.5127 147.079C93.7653 144.6 95.0717 141.207 96.305 139.09C100.356 132.14 120.75 138.971 127.414 135.852C127.594 135.768 128.35 135.263 128.486 134.99C129.902 132.147 127.926 113.158 129.592 107.215C130.431 104.222 131.806 102.988 134.452 101.486Z"
     id="path58" />
  <path
     fill="#2D5487"
     transform="scale(0.0625 0.0625)"
     d="M882.576 106.608C883.81 106.526 885.042 106.463 886.28 106.492C889.948 106.579 893.684 108.257 896.196 110.929C902.673 117.817 900.86 130.629 900.817 139.448C909.13 139.415 923.339 137.093 929.905 143.026C932.801 145.643 934.33 149.52 934.501 153.375C934.687 157.578 933.217 161.827 930.212 164.814C924.308 170.68 909.542 168.956 901.526 169.032C901.395 176.551 903.009 186.886 900.193 193.801C898.403 198.195 895.289 200.332 891.053 202.111C890.283 202.246 889.527 202.382 888.745 202.424C884.578 202.644 880.001 201.664 876.928 198.687C870.215 192.184 872.443 177.797 872.329 169.034C864.345 169.041 850.372 170.834 844.251 165.25C841.347 162.602 839.752 158.818 839.587 154.922C839.413 150.803 840.738 146.389 843.734 143.459C849.906 137.422 864.145 139.347 872.141 139.42C872.14 132.002 870.737 121.312 873.651 114.524C875.447 110.338 878.451 108.212 882.576 106.608Z"
     id="path60" />
  <path
     fill="#ABE0EF"
     transform="scale(0.0625 0.0625)"
     d="M884.499 114.124C886.861 114.289 889.228 114.426 891.017 116.173C895.815 120.857 893.983 140.215 893.974 146.841C900.885 146.39 920.958 144.688 925.915 149.298C927.309 150.593 927.924 152.361 927.858 154.244C927.786 156.292 927.145 158.109 925.599 159.496C920.588 163.99 901.203 161.737 894.04 161.616C894.138 169.714 895.36 182.244 893.702 189.81C893.13 192.425 891.95 193.757 889.764 195.208C888.805 195.374 887.87 195.45 886.897 195.444C884.861 195.432 883.03 194.945 881.598 193.416C876.901 188.401 878.808 169.35 878.863 162.129C872.041 162.005 852.986 163.546 848.406 159.194C846.961 157.82 846.287 156.029 846.295 154.051C846.304 152.146 846.936 150.382 848.366 149.084C853.136 144.753 872.005 146.482 878.97 146.534C879.014 139.892 877.488 122.324 880.164 117.109C881.145 115.196 882.56 114.658 884.499 114.124Z"
     id="path62" />
  <path
     fill="#2D5487"
     transform="scale(0.0625 0.0625)"
     d="M100.149 765.083C100.632 765.058 101.114 765.026 101.597 765.03C105.017 765.06 108.437 766.239 110.822 768.762C116.301 774.558 114.819 785.135 114.731 792.488C121.491 792.579 130.702 790.681 136.372 795.125C139.126 797.284 140.682 800.528 140.913 803.994C141.143 807.456 140.007 811.008 137.585 813.528C132.221 819.11 121.613 817.531 114.536 817.464C114.423 822.941 115.891 829.551 113.822 834.75C112.203 838.815 109.062 840.675 105.273 842.346C104.511 842.421 103.76 842.497 102.994 842.504C99.6435 842.532 96.1872 841.522 93.8144 839.062C88.699 833.758 89.9801 824.125 90.0129 817.335C83.1782 816.854 73.9833 818.892 68.2532 814.4C65.5917 812.281 63.9156 809.164 63.6164 805.775C63.2908 802.34 64.3893 798.812 66.7422 796.267C72.2011 790.363 82.6307 792.182 89.8989 792.046C90.7584 785.655 88.8602 777.818 91.5506 771.91C93.2793 768.114 96.3826 766.423 100.149 765.083Z"
     id="path64" />
  <path
     fill="#ABE0EF"
     transform="scale(0.0625 0.0625)"
     d="M99.9528 771.045C101.45 770.912 103.021 770.751 104.479 771.233C113 774.054 105.701 790.26 109.157 796.289C111.908 801.087 126.156 796.886 131.354 798.91C133.063 799.576 134.398 800.74 134.979 802.54C135.468 804.056 135.23 805.782 134.552 807.203C130.884 814.899 117.31 809.356 110.604 811.882C106.543 815.463 109.631 825.199 108.807 830.284C108.384 832.896 107.461 834.043 105.318 835.514C104.473 835.687 103.607 835.868 102.745 835.919C100.773 836.037 98.9358 835.554 97.5459 834.111C94.2092 830.647 96.2798 820.754 95.9643 816.151C95.2273 805.397 77.5733 815.047 71.3343 808.846C70.0392 807.558 69.2309 805.648 69.4263 803.806C70.546 793.252 89.2131 802.092 94.3875 796.806C97.6558 793.468 95.6014 785.058 95.7972 780.658C95.9857 776.423 96.7952 773.908 99.9528 771.045Z"
     id="path66" />
  <path
     fill="#2D5487"
     transform="scale(0.0625 0.0625)"
     d="M745.884 103.912C747.229 104.02 748.644 104.047 749.655 105.081C752.334 107.819 751.326 116.106 751.344 119.715C755.541 119.943 760.072 119.143 764.14 120.249C765.112 121.118 765.962 121.946 766.176 123.326C766.362 124.524 766.053 125.536 765.108 126.319C762.292 128.654 754.41 127.681 750.853 127.619C750.832 132.516 752.148 138.429 748.874 142.478C747.167 142.553 746.354 142.538 744.916 141.576C742.296 138.052 743.423 131.76 743.492 127.555C738.944 127.228 733.747 128.082 729.416 126.62C728.341 125.544 728.218 124.893 727.905 123.462C728.123 122.625 728.098 122.15 728.758 121.529C731.803 118.667 739.479 119.648 743.491 119.698C743.515 116.907 743.284 114.12 743.32 111.329C743.363 108.028 743.464 106.279 745.884 103.912Z"
     id="path68" />
  <path
     fill="#2D5487"
     transform="scale(0.0625 0.0625)"
     d="M948.724 425.928C950.317 426.001 951.344 426.036 952.74 426.927C955.54 430.552 954.497 437.062 954.485 441.42C957.346 441.405 960.427 441.198 963.263 441.523C965.932 441.828 968.637 442.585 970.391 444.71C970.273 445.584 970.414 445.654 969.721 446.311C966.297 449.557 958.744 448.637 954.312 448.556C954.414 453.461 955.527 460.172 952.452 464.289C951.129 464.398 949.582 464.624 948.541 463.632C945.864 461.083 946.915 452.269 946.955 448.678C941.739 448.79 935.348 449.668 931.148 445.985L931.073 444.807C931.25 444.632 931.423 444.45 931.606 444.28C935.082 441.05 942.424 441.935 946.88 442.016C947.123 437.132 945.931 430.099 948.724 425.928Z"
     id="path70" />
  <path
     fill="#2D5487"
     transform="scale(0.0625 0.0625)"
     d="M68.8369 347.031C70.9178 346.7 72.2524 346.506 74.0395 347.774C76.3415 351.354 75.0081 358.094 75.1118 362.348C78.954 362.413 85.2269 361.232 88.7336 362.502C89.7091 362.856 90.1458 363.52 90.336 364.552C90.5993 365.981 90.1921 366.542 89.468 367.665C85.68 369.996 79.8154 369.075 75.4611 368.981C75.5146 373.678 76.4538 379.665 73.8428 383.745C72.1153 384.093 70.9855 384.055 69.4565 383.153C67.1869 379.636 68.3507 373.147 68.3626 369.029C64.0884 369.039 59.3269 369.398 55.1998 368.193C53.504 367.698 51.8877 366.987 51.0279 365.37L51.3548 364.544C55.4132 360.887 62.9072 361.899 68.0256 361.988C68.0226 357.333 66.9984 351.333 68.8369 347.031Z"
     id="path72" />
  <path
     fill="#2D5487"
     transform="scale(0.0625 0.0625)"
     d="M92.8665 649.69C97.9546 649.155 102.51 652.855 103.029 657.945C103.548 663.034 99.8337 667.578 94.7422 668.081C89.6737 668.581 85.1554 664.887 84.6386 659.82C84.1218 654.754 87.8013 650.223 92.8665 649.69Z"
     id="path74" />
  <path
     fill="#F7FAFB"
     transform="scale(0.0625 0.0625)"
     d="M92.7465 654.322C95.177 653.613 97.7324 654.957 98.525 657.361C99.3177 659.766 98.0625 662.366 95.6866 663.241C94.0752 663.835 92.2683 663.502 90.9742 662.373C89.6801 661.244 89.1049 659.499 89.4741 657.822C89.8433 656.145 91.098 654.803 92.7465 654.322Z"
     id="path76" />
  <path
     fill="#2D5487"
     transform="scale(0.0625 0.0625)"
     d="M877.635 319.736C882.543 318.626 887.424 321.692 888.554 326.595C889.684 331.498 886.637 336.391 881.739 337.541C876.813 338.698 871.884 335.63 870.748 330.699C869.611 325.768 872.7 320.852 877.635 319.736Z"
     id="path78" />
  <path
     fill="#F7FAFB"
     transform="scale(0.0625 0.0625)"
     d="M878.827 324.253C881.298 323.826 883.664 325.431 884.181 327.885C884.698 330.339 883.181 332.762 880.748 333.368C879.093 333.781 877.344 333.256 876.19 332.001C875.035 330.745 874.658 328.959 875.208 327.344C875.758 325.729 877.146 324.544 878.827 324.253Z"
     id="path80" />
  <path
     fill="#2D5487"
     transform="scale(0.0625 0.0625)"
     d="M135.17 243.338C140.046 242.044 145.043 244.965 146.31 249.848C147.576 254.731 144.628 259.712 139.737 260.951C134.886 262.18 129.953 259.26 128.697 254.415C127.441 249.571 130.333 244.622 135.17 243.338Z"
     id="path82" />
  <path
     fill="#F7FAFB"
     transform="scale(0.0625 0.0625)"
     d="M135.852 247.727C137.383 247.05 139.16 247.253 140.499 248.256C141.838 249.26 142.531 250.909 142.312 252.568C142.092 254.227 140.994 255.638 139.439 256.259C137.096 257.194 134.435 256.08 133.457 253.754C132.479 251.428 133.544 248.747 135.852 247.727Z"
     id="path84" />
  <path
     fill="#2D5487"
     transform="scale(0.0625 0.0625)"
     d="M205.461 839.191C210.414 838.441 215.038 841.844 215.796 846.796C216.553 851.747 213.158 856.377 208.208 857.143C203.246 857.91 198.603 854.506 197.844 849.542C197.084 844.579 200.497 839.942 205.461 839.191Z"
     id="path86" />
  <path
     fill="#F7FAFB"
     transform="scale(0.0625 0.0625)"
     d="M205.008 843.671C207.376 842.709 210.079 843.818 211.088 846.166C212.097 848.515 211.043 851.239 208.715 852.295C207.167 852.997 205.361 852.808 203.992 851.801C202.623 850.793 201.906 849.125 202.117 847.438C202.328 845.752 203.433 844.311 205.008 843.671Z"
     id="path88" />
  <path
     fill="#2D5487"
     transform="scale(0.0625 0.0625)"
     d="M934.426 595.937C937.448 594.88 940.804 595.538 943.203 597.656C945.603 599.775 946.67 603.025 945.995 606.154C945.32 609.283 943.007 611.803 939.947 612.743C935.34 614.16 930.447 611.627 928.943 607.048C927.439 602.469 929.877 597.529 934.426 595.937Z"
     id="path90" />
  <path
     fill="#F7FAFB"
     transform="scale(0.0625 0.0625)"
     d="M935.233 599.782C937.582 598.555 940.481 599.457 941.72 601.8C942.958 604.143 942.069 607.047 939.732 608.296C937.379 609.553 934.452 608.657 933.206 606.299C931.96 603.94 932.869 601.018 935.233 599.782Z"
     id="path92" />
</svg>
